# This file uses centimeters as units for non-parametric coordinates.

mtllib outerwall2.mtl
v -14.940207 -107.725376 -48.199675
v 14.940207 -107.725376 -48.199675
v -14.940207 -106.725376 -48.199675
v 14.940207 -106.725376 -48.199675
v -14.940207 -106.725376 -52.281927
v 14.940207 -106.725376 -52.281927
v -14.940207 -107.725376 -52.281927
v 14.940207 -107.725376 -52.281927
v -9.979490 -107.725376 -48.199675
v -9.979490 -107.725376 -52.281927
v -9.979490 -106.725376 -52.281927
v -9.979490 -106.725376 -48.199675
v 11.911365 -107.725376 -48.199675
v 11.911365 -106.725376 -48.199675
v 11.911365 -106.725376 -52.281927
v 11.911365 -107.725376 -52.281927
v -14.940207 -124.471264 -52.281927
v -9.979490 -124.471264 -52.281927
v -9.979490 -124.471264 -48.199675
v -14.940207 -124.471264 -48.199675
v 11.911365 -124.471264 -52.281927
v 11.911365 -124.471264 -48.199675
v 14.940207 -124.471264 -52.281927
v 14.940207 -124.471264 -48.199675
v 14.085585 -107.725376 -48.199675
v 14.085585 -124.471264 -48.199675
v 14.085585 -124.471264 -52.281927
v 14.085585 -107.725376 -52.281927
v 14.085585 -106.725376 -52.281927
v 14.085585 -106.725376 -48.199675
v -13.948738 -107.725376 -48.199675
v -13.948738 -124.471264 -48.199675
v -13.948738 -124.471264 -52.281927
v -13.948738 -107.725376 -52.281927
v -13.948738 -106.725376 -52.281927
v -13.948738 -106.725376 -48.199675
v -9.979490 -107.725376 -191.406424
v -9.979490 -106.725376 -191.406424
v 11.911365 -106.725376 -191.406424
v 11.911365 -107.725376 -191.406424
v -13.948738 -107.725376 -191.406424
v -13.948738 -106.725376 -191.406424
v 14.085585 -107.725376 -191.406424
v 14.085585 -106.725376 -191.406424
v 14.940207 -106.725376 -191.406424
v 14.940207 -107.725376 -191.406424
v 14.085585 -124.471264 -191.406424
v 14.940207 -124.471264 -191.406424
v -14.940207 -107.725376 -191.406424
v -13.948738 -124.471264 -191.406424
v -14.940207 -124.471264 -191.406424
v -14.940207 -106.725376 -191.406424
v -6.321503 -107.725376 -206.345503
v -6.321503 -106.725376 -206.345503
v 7.599889 -106.725376 -206.345503
v 7.599889 -107.725376 -206.345503
v -8.845731 -107.725376 -206.345503
v -8.845731 -106.725376 -206.345503
v 8.982579 -106.725376 -206.345503
v 8.982579 -107.725376 -206.345503
vt 0.375000 0.000000
vt 0.625000 0.000000
vt 0.375000 0.250000
vt 0.625000 0.250000
vt 0.375000 0.500000
vt 0.625000 0.500000
vt 0.375000 0.750000
vt 0.625000 0.750000
vt 0.375000 1.000000
vt 0.625000 1.000000
vt 0.875000 0.000000
vt 0.875000 0.250000
vt 0.125000 0.000000
vt 0.125000 0.250000
vt 0.416472 0.000000
vt 0.416472 1.000000
vt 0.416472 0.750000
vt 0.416472 0.500000
vt 0.416472 0.250000
vt 0.599691 0.000000
vt 0.599691 1.000000
vt 0.599691 0.250000
vt 0.599691 0.500000
vt 0.599691 0.750000
vt 0.375000 0.750000
vt 0.416472 0.750000
vt 0.416472 1.000000
vt 0.375000 1.000000
vt 0.599691 1.000000
vt 0.599691 0.750000
vt 0.625000 0.750000
vt 0.625000 1.000000
vt 0.617859 0.000000
vt 0.617859 1.000000
vt 0.617859 1.000000
vt 0.617859 0.750000
vt 0.617859 0.750000
vt 0.617859 0.500000
vt 0.617859 0.250000
vt 0.383289 0.000000
vt 0.383289 1.000000
vt 0.383289 1.000000
vt 0.383289 0.750000
vt 0.383289 0.750000
vt 0.383289 0.500000
vt 0.383289 0.250000
vt 0.416472 0.500000
vt 0.599691 0.500000
vt 0.599691 0.750000
vt 0.416472 0.750000
vt 0.383289 0.500000
vt 0.383289 0.750000
vt 0.617859 0.500000
vt 0.625000 0.500000
vt 0.625000 0.750000
vt 0.617859 0.750000
vt 0.617859 0.750000
vt 0.625000 0.750000
vt 0.383289 0.750000
vt 0.375000 0.750000
vt 0.375000 0.750000
vt 0.375000 0.500000
vt 0.416472 0.500000
vt 0.599691 0.500000
vt 0.599691 0.750000
vt 0.416472 0.750000
vt 0.383289 0.750000
vt 0.383289 0.500000
vt 0.617859 0.500000
vt 0.617859 0.750000
vn 0.000000 0.000000 1.000000
vn 0.000000 0.000000 1.000000
vn 0.000000 0.000000 1.000000
vn 0.000000 0.000000 1.000000
vn 0.000000 1.000000 0.000000
vn 0.000000 1.000000 0.000000
vn 0.000000 1.000000 0.000000
vn 0.000000 1.000000 0.000000
vn 0.000000 0.000000 -1.000000
vn 0.000000 0.000000 -1.000000
vn 0.000000 0.000000 -1.000000
vn 0.000000 0.000000 -1.000000
vn 0.000000 -1.000000 0.000000
vn 0.000000 -1.000000 0.000000
vn 0.000000 -1.000000 0.000000
vn 0.000000 -1.000000 0.000000
vn 1.000000 0.000000 0.000000
vn 1.000000 0.000000 0.000000
vn 1.000000 0.000000 0.000000
vn 1.000000 0.000000 0.000000
vn -1.000000 0.000000 0.000000
vn -1.000000 0.000000 0.000000
vn -1.000000 0.000000 0.000000
vn -1.000000 0.000000 0.000000
vn 0.000000 -1.000000 0.000000
vn 0.000000 -1.000000 0.000000
vn 0.000000 -1.000000 0.000000
vn 0.000000 -1.000000 0.000000
vn 0.000000 0.000000 -1.000000
vn 0.000000 0.000000 -1.000000
vn 0.000000 1.000000 0.000000
vn 0.000000 1.000000 0.000000
vn 0.000000 0.000000 1.000000
vn 0.000000 0.000000 1.000000
vn 0.000000 0.000000 1.000000
vn 0.000000 0.000000 1.000000
vn 0.000000 0.000000 1.000000
vn 0.000000 0.000000 1.000000
vn 0.000000 1.000000 0.000000
vn 0.000000 1.000000 0.000000
vn 0.000000 1.000000 0.000000
vn 0.000000 1.000000 0.000000
vn 0.000000 0.000000 -1.000000
vn 0.000000 0.000000 -1.000000
vn 0.000000 0.000000 -1.000000
vn 0.000000 0.000000 -1.000000
vn 0.000000 -1.000000 0.000000
vn 0.000000 -1.000000 0.000000
vn 0.000000 -1.000000 0.000000
vn 0.000000 -1.000000 0.000000
vn 0.000000 0.000000 -1.000000
vn 0.000000 0.000000 -1.000000
vn 0.000000 0.000000 -1.000000
vn 0.000000 0.000000 -1.000000
vn 1.000000 0.000000 0.000000
vn 1.000000 0.000000 0.000000
vn 1.000000 0.000000 0.000000
vn 1.000000 0.000000 0.000000
vn 0.000000 0.000000 1.000000
vn 0.000000 0.000000 1.000000
vn -1.000000 0.000000 0.000000
vn -1.000000 0.000000 0.000000
vn -1.000000 0.000000 0.000000
vn -1.000000 0.000000 0.000000
vn -1.000000 0.000000 0.000000
vn -1.000000 0.000000 0.000000
vn 0.000000 0.000000 -1.000000
vn 0.000000 0.000000 -1.000000
vn 1.000000 0.000000 0.000000
vn 1.000000 0.000000 0.000000
vn 0.000000 0.000000 1.000000
vn 0.000000 0.000000 1.000000
vn 0.000000 0.000000 1.000000
vn 0.000000 -1.000000 0.000000
vn 0.000000 -1.000000 0.000000
vn 0.000000 0.000000 -1.000000
vn 0.000000 0.000000 -1.000000
vn 0.000000 0.000000 -1.000000
vn 0.000000 0.000000 -1.000000
vn 0.000000 0.000000 -1.000000
vn 0.000000 0.000000 -1.000000
vn 0.000000 0.000000 1.000000
vn 0.000000 0.000000 1.000000
vn 0.000000 -1.000000 0.000000
vn 0.000000 -1.000000 0.000000
vn 0.000000 0.000000 -1.000000
vn 0.000000 0.000000 -1.000000
vn 0.000000 0.000000 -1.000000
vn 0.000000 0.000000 -1.000000
vn 0.000000 0.000000 -1.000000
vn 0.000000 0.000000 -1.000000
vn 0.000000 1.000000 0.000000
vn 0.000000 1.000000 0.000000
vn 0.000000 0.000000 1.000000
vn 0.000000 1.000000 0.000000
vn 0.000000 1.000000 0.000000
vn 0.000000 -1.000000 0.000000
vn 0.000000 -1.000000 0.000000
vn 0.000000 1.000000 -0.000000
vn 0.000000 -1.000000 0.000000
vn 0.000000 -1.000000 0.000000
vn 0.000000 1.000000 0.000000
vn 0.000000 1.000000 0.000000
vn 1.000000 0.000000 0.000000
vn 1.000000 0.000000 0.000000
vn -1.000000 0.000000 0.000000
vn -1.000000 0.000000 0.000000
vn -1.000000 0.000000 0.000000
vn -1.000000 0.000000 0.000000
vn 1.000000 0.000000 0.000000
vn 0.000000 -1.000000 0.000000
vn 0.000000 -1.000000 0.000000
vn 0.000000 -1.000000 0.000000
vn 0.000000 -1.000000 0.000000
vn 1.000000 0.000000 0.000000
vn 1.000000 0.000000 0.000000
vn 1.000000 0.000000 0.000000
vn 1.000000 0.000000 0.000000
vn 0.000000 -1.000000 0.000000
vn 0.000000 -1.000000 0.000000
vn -1.000000 0.000000 0.000000
vn -1.000000 0.000000 0.000000
vn 0.000000 1.000000 0.000000
vn -1.000000 0.000000 0.000000
vn 0.000000 1.000000 0.000000
vn 0.000000 1.000000 0.000000
vn 0.000000 -1.000000 0.000000
vn 0.000000 -1.000000 0.000000
vn -0.946314 0.000000 -0.323249
vn -0.946314 0.000000 -0.323249
vn -0.946314 0.000000 -0.323249
vn -0.946314 0.000000 -0.323249
vn 0.000000 1.000000 -0.000000
vn 0.000000 -1.000000 0.000000
vn 0.000000 1.000000 0.000000
vn 0.946314 0.000000 -0.323249
vn 0.946314 0.000000 -0.323249
vn 0.946314 0.000000 -0.323249
vn 0.946314 0.000000 -0.323249
vn 0.000000 -1.000000 0.000000
s 1
usemtl initialShadingGroup
f 12/19/1 9/15/2 13/20/3 14/22/4
s 2
f 11/18/5 12/19/6 14/22/7 15/23/8
s 3
f 53/66/9 54/63/10 55/64/11 56/65/12
s 4
f 9/16/13 10/17/14 16/24/15 13/21/16
s 5
f 2/2/17 8/11/18 6/12/19 4/4/20
s 6
f 7/13/21 1/1/22 3/3/23 5/14/24
s 7
f 32/42/25 33/43/26 18/26/27 19/27/28
s 3
f 57/67/29 58/68/30 54/63/10 53/66/9
s 2
f 35/45/31 36/46/32 12/19/6 11/18/5
s 1
f 36/46/33 31/40/34 9/15/2 12/19/1
f 30/39/35 25/33/36 2/2/37 4/4/38
s 2
f 29/38/39 30/39/40 4/4/41 6/6/42
s 8
f 43/57/43 44/53/44 45/54/45 46/55/46
s 9
f 26/35/47 27/36/48 23/31/49 24/32/50
s off
f 33/43/51 34/44/52 10/17/53 18/26/54
f 10/17/55 9/16/56 19/27/57 18/26/58
s 1
f 9/16/2 31/41/34 32/42/59 19/27/60
s 6
f 1/9/22 7/7/21 17/25/61 20/28/62
s off
f 13/21/63 16/24/64 21/30/65 22/29/66
s 8
f 47/56/67 43/57/43 46/55/46 48/58/68
s 5
f 8/8/18 2/10/17 24/32/69 23/31/70
s 1
f 2/10/37 25/34/36 26/35/71 24/32/72
f 26/35/71 25/34/36 13/21/3 22/29/73
s 9
f 22/29/74 21/30/75 27/36/48 26/35/47
s off
f 16/24/76 28/37/77 27/36/78 21/30/79
s 3
f 56/65/12 55/64/11 59/69/80 60/70/81
s 2
f 15/23/8 14/22/7 30/39/40 29/38/39
s 1
f 14/22/4 13/20/3 25/33/36 30/39/35
f 32/42/59 31/41/34 1/9/82 20/28/83
s 7
f 17/25/84 33/43/26 32/42/25 20/28/85
s 10
f 49/61/86 41/52/87 50/59/88 51/60/89
f 52/62/90 42/51/91 41/52/87 49/61/86
s 2
f 3/3/92 36/46/32 35/45/31 5/5/93
s 1
f 1/1/82 31/40/34 36/46/33 3/3/94
s 2
f 11/18/5 15/23/8 39/48/95 38/47/96
s 4
f 16/24/15 10/17/14 37/50/97 40/49/98
s 2
f 35/45/31 11/18/5 38/47/96 42/51/99
s 4
f 10/17/14 34/44/100 41/52/101 37/50/97
s 2
f 29/38/39 6/6/42 45/54/102 44/53/103
s 5
f 6/6/19 8/8/18 46/55/104 45/54/105
s off
f 27/36/106 28/37/107 43/57/108 47/56/109
s 5
f 8/8/18 23/31/70 48/58/110 46/55/104
s 9
f 23/31/49 27/36/48 47/56/111 48/58/112
s 2
f 15/23/8 29/38/39 44/53/103 39/48/95
s 4
f 28/37/113 16/24/15 40/49/98 43/57/114
s off
f 34/44/115 33/43/116 50/59/117 41/52/118
s 7
f 33/43/26 17/25/84 51/60/119 50/59/120
s 6
f 17/25/61 7/7/21 49/61/121 51/60/122
s 2
f 5/5/93 35/45/31 42/51/99 52/62/123
s 6
f 7/7/21 5/5/24 52/62/124 49/61/121
s 2
f 38/47/96 39/48/95 55/64/125 54/63/126
s 4
f 40/49/98 37/50/97 53/66/127 56/65/128
s off
f 41/52/129 42/51/130 58/68/131 57/67/132
s 2
f 42/51/99 38/47/96 54/63/126 58/68/133
s 4
f 37/50/97 41/52/101 57/67/134 53/66/127
s 2
f 39/48/95 44/53/103 59/69/135 55/64/125
s off
f 44/53/136 43/57/137 60/70/138 59/69/139
s 4
f 43/57/114 40/49/98 56/65/128 60/70/140
