# This file uses centimeters as units for non-parametric coordinates.

mtllib section3.mtl
v -4.442904 -116.796907 -206.558945
v 3.014543 -116.796907 -206.558945
v -4.442904 -115.796907 -206.558945
v 3.014543 -115.796907 -206.558945
v -4.442904 -115.796907 -258.918122
v 3.014543 -115.796907 -258.918122
v -4.442904 -116.796907 -258.918122
v 3.014543 -116.796907 -258.918122
v -15.142590 -115.796907 -303.929185
v 39.480078 -115.796907 -282.480351
v 39.480078 -116.796907 -282.480351
v -15.142590 -116.796907 -303.929185
v -14.343880 -115.796907 -260.259738
v 4.842170 -115.796907 -260.521551
v 4.842170 -116.796907 -260.521551
v -14.343880 -116.796907 -260.259738
v -15.142590 -115.796907 -348.195986
v 36.751020 -115.796907 -347.862843
v 36.751020 -116.796907 -347.862843
v -15.142590 -116.796907 -348.195986
v -0.819979 -116.796907 -206.558945
v -0.819979 -116.796907 -258.918122
v -5.023046 -116.796907 -260.386909
v 19.031171 -116.796907 -304.304474
v 19.031171 -116.796907 -348.571312
v 19.031171 -115.796907 -348.571312
v 19.031171 -115.796907 -304.304474
v -5.023046 -115.796907 -260.386909
v -0.819979 -115.796907 -258.918122
v -0.819979 -115.796907 -206.558945
v -15.142590 -115.796907 -326.638180
v 19.031171 -115.796907 -327.013543
v 39.480078 -115.796907 -320.988042
v 39.480078 -116.796907 -320.988042
v 19.031171 -116.796907 -327.013543
v -15.142590 -116.796907 -326.638180
v -1.480619 -116.796907 -206.558945
v -1.480619 -116.796907 -258.918122
v -6.722699 -116.796907 -260.363712
v 12.799588 -116.796907 -304.236055
v 12.799588 -116.796907 -326.945069
v 12.799588 -116.796907 -348.502875
v 12.799588 -115.796907 -348.502875
v -6.722699 -115.796907 -260.363712
v -1.480619 -115.796907 -258.918122
v -1.480619 -115.796907 -206.558945
v -2.919436 -116.796907 -206.558945
v -2.919436 -116.796907 -258.918122
v -10.424396 -116.796907 -260.313236
v -0.772261 -116.796907 -304.086987
v -0.772261 -116.796907 -326.796073
v -0.772261 -116.796907 -348.353880
v -0.772261 -115.796907 -348.353880
v -10.424396 -115.796907 -260.313236
v -2.919436 -115.796907 -258.918122
v -2.919436 -115.796907 -206.558945
v -14.918607 -115.796907 -291.682867
v -3.479020 -115.796907 -291.811467
v 11.219014 -115.796907 -291.932871
v 17.657112 -115.796907 -291.988657
v 25.357948 -115.796907 -270.090916
v 25.357948 -116.796907 -270.090916
v 12.285625 -116.796907 -291.988657
v 7.324935 -116.796907 -291.932871
v -3.479019 -116.796907 -291.811467
v -14.918607 -116.796907 -291.682867
v 12.799588 -114.002580 -348.502875
v 12.799588 -114.002580 -326.945069
v 19.031171 -114.002580 -327.013543
v 19.031171 -114.002580 -348.571312
v 10.996865 -114.002580 -304.236055
v 11.219014 -114.002580 -291.932871
v 17.657112 -114.002580 -291.988657
v 19.031171 -114.002580 -304.304474
v -0.772261 -114.002580 -348.353880
v -0.772261 -114.002580 -326.796073
v -0.772261 -114.002580 -304.086987
v -3.479020 -114.002580 -291.811467
v -15.142590 -114.002580 -326.638180
v -15.142590 -114.002580 -348.195986
v -15.142590 -114.002580 -303.929185
v -14.918607 -114.002580 -291.682867
v -15.142590 -115.796907 -317.166748
v -15.142590 -114.002580 -317.166748
v -0.772261 -114.002580 -317.324641
v 11.939787 -114.002580 -317.473636
v 19.031171 -114.002580 -317.542110
v 19.031171 -115.796907 -317.542110
v 39.480078 -115.796907 -295.717987
v 39.480078 -116.796907 -295.717987
v 19.031171 -116.796907 -317.542110
v 12.799588 -116.796907 -317.473636
v -0.772261 -116.796907 -317.324641
v -15.142590 -116.796907 -317.166748
v -6.847662 -114.002580 -348.287163
v -6.932374 -114.002580 -326.728405
v 12.799588 -111.575158 -348.502875
v 12.799588 -111.387363 -326.945069
v 19.031171 -111.575158 -327.013543
v 19.031171 -111.575158 -348.571312
v -0.772261 -111.575158 -348.353880
v -0.772261 -111.387363 -326.796073
v -0.772261 -111.387363 -317.324641
v 11.939787 -111.387363 -317.473636
v -6.847662 -111.575158 -348.287163
v -6.932374 -111.575158 -326.728405
v 12.799588 -110.901635 -348.502875
v 12.799588 -110.901635 -328.311465
v 18.067057 -110.901635 -328.410286
v 17.852514 -110.901635 -348.384629
v -0.772261 -110.901635 -348.353880
v -0.772261 -110.901635 -328.162470
v -6.177570 -110.901635 -348.224795
v -5.838376 -110.901635 -328.378603
vt 0.375000 0.000000
vt 0.625000 0.000000
vt 0.375000 0.250000
vt 0.625000 0.250000
vt 0.375000 0.500000
vt 0.625000 0.500000
vt 0.375000 0.750000
vt 0.625000 0.750000
vt 0.375000 1.000000
vt 0.625000 1.000000
vt 0.875000 0.000000
vt 0.875000 0.250000
vt 0.125000 0.000000
vt 0.125000 0.250000
vt 0.375000 0.500000
vt 0.625000 0.500000
vt 0.625000 0.750000
vt 0.375000 0.750000
vt 0.375000 0.500000
vt 0.625000 0.500000
vt 0.625000 0.750000
vt 0.375000 0.750000
vt 0.375000 0.500000
vt 0.625000 0.500000
vt 0.625000 0.750000
vt 0.375000 0.750000
vt 0.496453 0.000000
vt 0.496453 1.000000
vt 0.496453 0.750000
vt 0.496453 0.750000
vt 0.496453 0.750000
vt 0.496453 0.750000
vt 0.496453 0.500000
vt 0.496453 0.500000
vt 0.496453 0.500000
vt 0.496453 0.500000
vt 0.496453 0.250000
vt 0.375000 0.500000
vt 0.496453 0.500000
vt 0.625000 0.500000
vt 0.625000 0.750000
vt 0.496453 0.750000
vt 0.375000 0.750000
vt 0.474306 0.000000
vt 0.474306 1.000000
vt 0.474306 0.750000
vt 0.474306 0.750000
vt 0.474306 0.750000
vt 0.474306 0.750000
vt 0.474306 0.750000
vt 0.474306 0.500000
vt 0.474306 0.500000
vt 0.474306 0.500000
vt 0.474306 0.500000
vt 0.474306 0.500000
vt 0.474306 0.250000
vt 0.426072 0.000000
vt 0.426072 1.000000
vt 0.426072 0.750000
vt 0.426072 0.750000
vt 0.426072 0.750000
vt 0.426072 0.750000
vt 0.426072 0.750000
vt 0.426072 0.500000
vt 0.426072 0.500000
vt 0.426072 0.500000
vt 0.426072 0.500000
vt 0.426072 0.500000
vt 0.426072 0.250000
vt 0.375000 0.500000
vt 0.426072 0.500000
vt 0.474306 0.500000
vt 0.496453 0.500000
vt 0.625000 0.500000
vt 0.625000 0.750000
vt 0.496453 0.750000
vt 0.474306 0.750000
vt 0.426072 0.750000
vt 0.375000 0.750000
vt 0.496453 0.500000
vt 0.496453 0.500000
vt 0.474306 0.500000
vt 0.474306 0.500000
vt 0.496453 0.500000
vt 0.496453 0.500000
vt 0.426072 0.500000
vt 0.426072 0.500000
vt 0.375000 0.500000
vt 0.375000 0.500000
vt 0.375000 0.500000
vt 0.375000 0.500000
vt 0.375000 0.500000
vt 0.375000 0.500000
vt 0.426072 0.500000
vt 0.474306 0.500000
vt 0.496453 0.500000
vt 0.496453 0.500000
vt 0.625000 0.500000
vt 0.625000 0.750000
vt 0.496453 0.750000
vt 0.474306 0.750000
vt 0.426072 0.750000
vt 0.375000 0.750000
vt 0.404480 0.500000
vt 0.404179 0.500000
vt 0.474306 0.500000
vt 0.496453 0.500000
vt 0.496453 0.500000
vt 0.474306 0.500000
vt 0.426072 0.500000
vt 0.426072 0.500000
vt 0.426072 0.500000
vt 0.474306 0.500000
vt 0.404480 0.500000
vt 0.404179 0.500000
vt 0.474306 0.500000
vt 0.496453 0.500000
vt 0.496453 0.500000
vt 0.474306 0.500000
vt 0.426072 0.500000
vt 0.426072 0.500000
vt 0.404480 0.500000
vt 0.404179 0.500000
vn 0.000000 0.000000 1.000000
vn 0.000000 0.000000 1.000000
vn 0.000000 0.000000 1.000000
vn 0.000000 0.000000 1.000000
vn 0.000000 1.000000 -0.000000
vn 0.000000 1.000000 0.000000
vn 0.000000 1.000000 0.000000
vn 0.000000 1.000000 -0.000000
vn 0.026713 0.000000 -0.999643
vn 0.014720 0.000000 -0.999892
vn 0.039950 0.000000 -0.999202
vn 0.039950 0.000000 -0.999202
vn 0.000000 -1.000000 0.000000
vn 0.000000 -1.000000 -0.000000
vn 0.000000 -1.000000 -0.000000
vn 0.000000 -1.000000 0.000000
vn 1.000000 0.000000 0.000000
vn 1.000000 0.000000 0.000000
vn 1.000000 0.000000 0.000000
vn 1.000000 0.000000 0.000000
vn -1.000000 0.000000 0.000000
vn -1.000000 0.000000 0.000000
vn -1.000000 0.000000 0.000000
vn -1.000000 0.000000 0.000000
vn 0.000000 1.000000 0.000000
vn 0.000000 1.000000 -0.000000
vn 0.000000 1.000000 0.000000
vn 0.000000 1.000000 0.000000
vn 0.535425 0.000000 0.844582
vn 0.535425 0.000000 0.844582
vn 0.659486 0.000000 0.751717
vn 0.659486 0.000000 0.751717
vn 0.000000 -1.000000 0.000000
vn 0.000000 -1.000000 0.000000
vn 0.000000 -1.000000 0.000000
vn 0.000000 -1.000000 0.000000
vn -0.999833 0.000000 0.018287
vn -0.999833 0.000000 0.018287
vn -0.999961 0.000000 0.008789
vn -0.999961 0.000000 0.008789
vn 0.000000 1.000000 0.000000
vn 0.000000 1.000000 0.000000
vn 0.659495 0.000000 0.751709
vn 0.659495 0.000000 0.751709
vn 0.447249 0.000000 0.894410
vn 0.447249 0.000000 0.894410
vn 0.000000 -1.000000 -0.000000
vn 0.000000 -1.000000 -0.000000
vn -0.134276 0.000000 0.990944
vn -0.134276 0.000000 0.990944
vn -0.952500 0.000000 0.304538
vn -0.952500 0.000000 0.304538
vn 0.000000 1.000000 0.000000
vn 0.000000 1.000000 0.000000
vn 0.000000 1.000000 0.000000
vn 0.000000 1.000000 0.000000
vn 0.998633 0.000000 -0.052265
vn 0.998633 0.000000 -0.052265
vn 0.994884 0.000000 -0.101028
vn 0.994884 0.000000 -0.101028
vn 0.000000 -1.000000 0.000000
vn 0.000000 -1.000000 0.000000
vn 0.000000 -1.000000 0.000000
vn 0.000000 -1.000000 0.000000
vn -1.000000 0.000000 0.000000
vn -1.000000 0.000000 0.000000
vn -1.000000 0.000000 0.000000
vn -1.000000 0.000000 0.000000
vn 0.000000 -1.000000 0.000000
vn 0.000000 -1.000000 0.000000
vn 0.000000 -1.000000 0.000000
vn 0.000000 -1.000000 0.000000
vn 0.000000 -1.000000 0.000000
vn 0.000000 -1.000000 0.000000
vn 0.000000 -1.000000 0.000000
vn -0.010979 0.000000 -0.999940
vn -0.010979 0.000000 -0.999940
vn 0.000000 1.000000 -0.000000
vn 0.000000 1.000000 -0.000000
vn 0.000000 1.000000 -0.000000
vn 0.000000 1.000000 -0.000000
vn 0.000000 1.000000 0.000000
vn 0.000000 1.000000 0.000000
vn 0.000000 1.000000 0.000000
vn 0.000000 1.000000 0.000000
vn 0.000000 1.000000 -0.000000
vn 0.000000 1.000000 0.000000
vn 0.000000 1.000000 0.000000
vn 0.000000 0.000000 1.000000
vn 0.000000 0.000000 1.000000
vn 0.000000 1.000000 0.000000
vn 0.000000 1.000000 0.000000
vn 0.000000 1.000000 0.000000
vn 0.000000 1.000000 0.000000
vn 0.000000 1.000000 0.000000
vn 0.000000 1.000000 0.000000
vn 1.000000 0.000000 0.000000
vn 1.000000 0.000000 0.000000
vn 0.000000 -1.000000 0.000000
vn 0.000000 -1.000000 0.000000
vn 0.000000 -1.000000 0.000000
vn -1.000000 0.000000 0.000000
vn -1.000000 0.000000 0.000000
vn 0.000000 -1.000000 0.000000
vn 0.000000 -1.000000 0.000000
vn 0.000000 -1.000000 -0.000000
vn 0.000000 -1.000000 0.000000
vn 0.000000 -1.000000 0.000000
vn 0.000000 -1.000000 0.000000
vn 0.000000 -1.000000 0.000000
vn 0.000000 -1.000000 0.000000
vn -0.010982 0.000000 -0.999940
vn -0.010982 -0.000003 -0.999940
vn 0.000000 1.000000 0.000000
vn 0.000000 1.000000 0.000000
vn 0.000000 1.000000 0.000000
vn 0.000000 1.000000 0.000000
vn 0.000000 1.000000 0.000000
vn 0.000000 1.000000 0.000000
vn 0.000000 1.000000 0.000000
vn 0.000000 1.000000 0.000000
vn 0.000000 1.000000 0.000000
vn 0.000000 1.000000 0.000000
vn 0.000000 1.000000 0.000000
vn 0.000000 0.000000 1.000000
vn 0.000000 0.000000 1.000000
vn 0.000000 -1.000000 0.000000
vn 0.000000 -1.000000 0.000000
vn 0.000000 -1.000000 -0.000000
vn 0.000000 -1.000000 0.000000
vn 0.000000 -1.000000 0.000000
vn 0.000000 -1.000000 0.000000
vn 0.000000 -1.000000 0.000000
vn 0.000000 -1.000000 0.000000
vn -0.010987 -0.000007 -0.999940
vn -0.010987 0.000000 -0.999940
vn 0.000000 1.000000 0.000000
vn 0.000000 1.000000 0.000000
vn 0.000000 1.000000 -0.000000
vn 0.000000 1.000000 -0.000000
vn 0.000000 1.000000 -0.000000
vn 0.000000 1.000000 -0.000000
vn 0.000000 1.000000 -0.000000
vn 0.000000 1.000000 0.000000
vn 0.000000 1.000000 0.000000
vn 0.000000 1.000000 0.000000
vn 0.000000 1.000000 0.000000
vn 0.000000 1.000000 0.000000
vn 0.000000 0.000000 1.000000
vn 0.000000 0.000000 1.000000
vn 0.000000 1.000000 0.000000
vn 0.000000 1.000000 0.000000
vn 0.000000 1.000000 -0.000000
vn 1.000000 0.000000 0.000000
vn 1.000000 0.000000 0.000000
vn 1.000000 0.000000 0.000000
vn 1.000000 0.000000 0.000000
vn -0.010979 0.000000 -0.999940
vn -0.010982 0.000000 -0.999940
vn 0.008383 0.000000 0.999965
vn 0.008665 0.000000 0.999962
vn 0.008665 0.000000 0.999962
vn 0.008383 0.000000 0.999965
vn 0.993834 0.000000 0.110881
vn 0.998557 0.000000 0.053694
vn 0.998557 0.000000 0.053694
vn 0.993834 0.000000 0.110881
vn 1.000000 0.000000 0.000000
vn 1.000000 0.000000 0.000000
vn -0.010980 -0.000003 -0.999940
vn 0.009564 0.000000 0.999954
vn 0.009564 0.000000 0.999954
vn -0.010987 -0.000010 -0.999940
vn -0.010985 -0.000008 -0.999940
vn -1.000000 0.000000 0.000000
vn -1.000000 0.000000 0.000000
vn -1.000000 0.000000 0.000000
vn 0.011241 0.000000 0.999937
vn 0.011241 0.000000 0.999937
vn -0.999833 0.000000 0.018287
vn -0.999961 0.000000 0.008789
vn 1.000000 0.000000 0.000000
vn 1.000000 0.000000 0.000000
vn 0.000000 1.000000 0.000000
vn 0.000000 1.000000 0.000000
vn 0.010987 0.000000 0.999940
vn 0.010987 0.000000 0.999940
vn 0.013926 0.174652 0.984532
vn 0.011690 0.830824 0.556413
vn 0.949727 0.313079 -0.001020
vn 0.958416 0.285373 -0.000929
vn -0.010020 0.008872 -0.999910
vn -0.007990 0.027648 -0.999586
vn -0.011365 0.003489 -0.999929
vn -1.000000 0.000000 0.000000
vn -1.000000 0.000000 0.000000
vn -1.000000 0.000000 0.000000
vn -1.000000 0.000000 0.000000
vn 0.011720 0.000000 0.999931
vn 0.011720 0.000000 0.999931
vn 0.011720 0.000000 0.999931
vn 0.011720 0.000000 0.999931
vn 0.995905 0.000000 0.090407
vn 0.995905 0.000000 0.090407
vn 0.995905 0.000000 0.090407
vn 0.995905 0.000000 0.090407
vn -0.999992 0.000000 -0.003929
vn -0.999992 0.000000 -0.003929
vn -0.972145 0.234372 -0.002027
vn -0.964029 0.265792 -0.001754
vn 0.010983 0.000000 0.999940
vn 0.010983 0.000000 0.999940
vn -0.002672 0.840191 0.542283
vn 0.006047 0.183801 0.982945
vn -0.012219 0.011172 -0.999863
vn 0.020636 0.924485 0.380659
vn 0.008907 0.937030 0.349134
vn 0.533330 0.845903 -0.002755
vn 0.533330 0.845903 -0.002755
vn -0.006453 0.041793 -0.999106
vn 0.004369 0.141024 -0.989996
vn -0.003986 0.940238 0.340495
vn -0.012782 0.016280 -0.999786
vn -0.604772 0.796390 0.003717
vn -0.604772 0.796390 0.003717
vn -0.020310 0.935699 0.352215
vn -0.017027 0.054694 -0.998358
s 1
usemtl initialShadingGroup
f 30/37/1 21/27/2 2/2/3 4/4/4
s 2
f 29/36/5 30/37/6 4/4/7 6/6/8
s 3
f 25/32/9 26/33/10 18/24/11 19/25/12
s 4
f 21/28/13 22/29/14 8/8/15 2/10/16
s off
f 2/2/17 8/11/18 6/12/19 4/4/20
f 7/13/21 1/1/22 3/3/23 5/14/24
s 2
f 27/34/25 60/73/26 61/74/27 10/16/28
s 6
f 61/74/29 62/75/30 11/17/31 10/16/32
s 4
f 62/75/33 63/76/34 24/31/35 11/17/36
s 8
f 66/79/37 57/70/38 9/15/39 12/18/40
s 2
f 28/35/41 29/36/5 6/6/8 14/20/42
s 6
f 6/6/43 8/8/44 15/21/45 14/20/46
s 4
f 8/8/15 22/29/14 23/30/47 15/21/48
s 8
f 7/7/49 5/5/50 13/19/51 16/22/52
s 2
f 26/33/53 32/39/54 33/40/55 18/24/56
s 10
f 33/40/57 34/41/58 19/25/59 18/24/60
s 4
f 34/41/61 35/42/62 25/32/63 19/25/64
s 8
f 36/43/65 31/38/66 17/23/67 20/26/68
s 4
f 37/45/69 38/46/70 22/29/14 21/28/13
f 23/30/47 22/29/14 38/46/70 39/47/71
f 24/31/35 63/76/34 64/77/72 40/48/73
f 25/32/63 35/42/62 41/49/74 42/50/75
s 3
f 42/50/76 43/51/77 26/33/10 25/32/9
s 13
f 107/119/78 108/116/79 109/117/80 110/118/81
s 14
f 71/53/82 72/83/83 73/84/84 74/85/85
s 2
f 44/54/86 45/55/87 29/36/5 28/35/41
f 45/55/87 46/56/88 30/37/6 29/36/5
s 1
f 46/56/89 37/44/90 21/27/2 30/37/1
s 14
f 68/52/91 86/95/92 87/96/93 69/80/94
s 2
f 33/40/55 32/39/54 88/97/95 89/98/96
s 10
f 89/98/97 90/99/98 34/41/58 33/40/57
s 4
f 90/99/99 91/100/100 35/42/62 34/41/61
f 91/100/100 92/101/101 41/49/74 35/42/62
s 8
f 94/103/102 83/92/103 31/38/66 36/43/65
s 4
f 47/58/104 48/59/105 38/46/70 37/45/69
f 39/47/71 38/46/70 48/59/105 49/60/106
f 40/48/73 64/77/72 65/78/107 50/61/108
f 92/101/101 93/102/109 51/62/110 41/49/74
f 42/50/75 41/49/74 51/62/110 52/63/111
s 3
f 52/63/112 53/64/113 43/51/77 42/50/76
s 13
f 111/121/114 112/120/115 108/116/79 107/119/78
s off
f 102/111/116 103/112/117 104/113/118 98/106/119
s 14
f 77/66/120 78/87/121 72/83/83 71/53/82
s 2
f 54/67/122 55/68/123 45/55/87 44/54/86
f 55/68/123 56/69/124 46/56/88 45/55/87
s 1
f 56/69/125 47/57/126 37/44/90 46/56/89
s 4
f 7/7/127 48/59/105 47/58/104 1/9/128
f 49/60/106 48/59/105 7/7/127 16/22/129
f 50/61/108 65/78/107 66/79/130 12/18/131
f 36/43/132 51/62/110 93/102/109 94/103/133
f 52/63/111 51/62/110 36/43/132 20/26/134
s 3
f 17/23/135 53/64/113 52/63/112 20/26/136
s 13
f 113/122/137 114/123/138 112/120/115 111/121/114
s 14
f 84/93/139 85/94/140 76/65/141 96/105/142 79/89/143
f 82/91/144 78/87/121 77/66/120 81/90/145
s 2
f 5/5/146 55/68/123 54/67/122 13/19/147
f 3/3/148 56/69/124 55/68/123 5/5/146
s 1
f 1/1/149 47/57/126 56/69/125 3/3/150
s 2
f 13/19/147 54/67/122 58/71/151 57/70/152
f 59/72/153 58/71/151 54/67/122 44/54/86
f 60/73/26 59/72/153 44/54/86 28/35/41
f 61/74/27 60/73/26 28/35/41 14/20/42
s 6
f 14/20/46 15/21/45 62/75/30 61/74/29
s 4
f 15/21/48 23/30/47 63/76/34 62/75/33
f 64/77/72 63/76/34 23/30/47 39/47/71
f 65/78/107 64/77/72 39/47/71 49/60/106
f 66/79/130 65/78/107 49/60/106 16/22/129
s 8
f 16/22/52 13/19/51 57/70/38 66/79/37
s 16
f 32/39/154 26/33/155 70/81/156 69/80/157
s 3
f 26/33/10 43/51/77 67/82/158 70/81/159
s 17
f 59/72/160 60/73/161 73/84/162 72/83/163
s 16
f 60/73/164 27/34/165 74/85/166 73/84/167
f 87/96/168 88/97/169 32/39/154 69/80/157
s 3
f 43/51/77 53/64/113 75/86/170 67/82/158
s 17
f 58/71/171 59/72/160 72/83/163 78/87/172
s 3
f 53/64/113 17/23/135 80/88/173 95/104/174 75/86/170
s 8
f 17/23/67 31/38/66 79/89/175 80/88/176
f 31/38/66 83/92/103 84/93/177 79/89/175
s 17
f 57/70/178 58/71/171 78/87/172 82/91/179
s 8
f 9/15/39 57/70/38 82/91/180 81/90/181
f 84/93/177 83/92/103 9/15/39 81/90/181
s 14
f 81/90/145 77/66/120 85/94/140 84/93/139
f 86/95/92 85/94/140 77/66/120 71/53/82
f 87/96/93 86/95/92 71/53/82 74/85/85
s 16
f 27/34/165 88/97/169 87/96/168 74/85/166
s 2
f 89/98/96 88/97/95 27/34/25 10/16/28
s 10
f 10/16/182 11/17/183 90/99/98 89/98/97
s 4
f 11/17/36 24/31/35 91/100/100 90/99/99
f 40/48/73 92/101/101 91/100/100 24/31/35
f 50/61/108 93/102/109 92/101/101 40/48/73
f 94/103/133 93/102/109 50/61/108 12/18/131
s 8
f 12/18/40 9/15/39 83/92/103 94/103/102
s 14
f 79/89/143 96/105/142 95/104/184 80/88/185
s 19
f 68/52/186 69/80/187 99/107/188 98/106/189
s 16
f 69/80/157 70/81/156 100/108/190 99/107/191
s 3
f 70/81/159 67/82/158 97/109/192 100/108/193
f 67/82/158 75/86/170 101/110/194 97/109/192
s off
f 76/65/195 85/94/196 103/112/197 102/111/198
f 85/94/199 86/95/200 104/113/201 103/112/202
f 86/95/203 68/52/204 98/106/205 104/113/206
s 20
f 95/104/207 96/105/208 106/115/209 105/114/210
s 19
f 96/105/211 76/65/212 102/111/213 106/115/214
s 3
f 75/86/170 95/104/174 105/114/215 101/110/194
s 19
f 98/106/189 99/107/188 109/117/216 108/116/217
s 16
f 99/107/191 100/108/190 110/118/218 109/117/219
s 3
f 100/108/193 97/109/192 107/119/220 110/118/221
s 19
f 102/111/213 98/106/189 108/116/217 112/120/222
s 3
f 97/109/192 101/110/194 111/121/223 107/119/220
s 20
f 105/114/210 106/115/209 114/123/224 113/122/225
s 19
f 106/115/214 102/111/213 112/120/222 114/123/226
s 3
f 101/110/194 105/114/215 113/122/227 111/121/223
