# This file uses centimeters as units for non-parametric coordinates.

v 2.000000 -0.000000 -2.000000
v -2.000000 -0.000000 -2.000000
v -2.000000 -0.000000 2.000000
v 2.000000 -0.000000 2.000000
v 2.000000 4.000000 -2.000000
v 2.000000 4.000000 2.000000
v -2.000000 4.000000 2.000000
v -2.000000 4.000000 -2.000000
v 2.000000 -0.000000 -2.000000
v 2.000000 4.000000 -2.000000
v -2.000000 4.000000 -2.000000
v -2.000000 -0.000000 -2.000000
v -2.000000 4.000000 -2.000000
v -2.000000 4.000000 2.000000
v -2.000000 -0.000000 2.000000
v -2.000000 -0.000000 -2.000000
v -2.000000 -0.000000 2.000000
v -2.000000 4.000000 2.000000
v 2.000000 4.000000 2.000000
v 2.000000 -0.000000 2.000000
v 2.000000 4.000000 2.000000
v 2.000000 4.000000 -2.000000
v 2.000000 -0.000000 -2.000000
v 2.000000 -0.000000 2.000000
vt -5.000001 4.000001
vt -9.000002 4.000003
vt -8.999999 8.000003
vt -5.000000 8.000001
vt -1.000001 4.000000
vt -1.000000 8.000000
vt 3.000000 8.000000
vt 3.000000 4.000000
vt -1.000000 0.000000
vt -1.000001 4.000000
vt 3.000000 4.000000
vt 3.000000 0.000000
vt 3.000000 4.000000
vt 3.000000 8.000000
vt 6.999999 8.000001
vt 7.000000 4.000000
vt 3.000000 12.000000
vt 3.000000 8.000000
vt -1.000000 8.000000
vt -1.000000 12.000000
vt -1.000000 8.000000
vt -1.000001 4.000000
vt -5.000001 4.000001
vt -5.000000 8.000001
vn 0.000000 1.000000 0.000000
vn 0.000000 1.000000 0.000000
vn 0.000000 1.000000 0.000000
vn 0.000000 1.000000 0.000000
vn 0.000000 1.000000 0.000000
vn 0.000000 1.000000 0.000000
vn 0.000000 -1.000000 0.000000
vn 0.000000 -1.000000 0.000000
vn 0.000000 -1.000000 0.000000
vn 0.000000 -1.000000 0.000000
vn 0.000000 -1.000000 0.000000
vn 0.000000 -1.000000 0.000000
vn 0.000000 0.000000 1.000000
vn 0.000000 0.000000 1.000000
vn 0.000000 0.000000 1.000000
vn 0.000000 0.000000 1.000000
vn 0.000000 0.000000 1.000000
vn 0.000000 0.000000 1.000000
vn 1.000000 0.000000 0.000000
vn 1.000000 0.000000 0.000000
vn 1.000000 0.000000 0.000000
vn 1.000000 0.000000 0.000000
vn 1.000000 0.000000 0.000000
vn 1.000000 0.000000 0.000000
vn 0.000000 0.000000 -1.000000
vn 0.000000 0.000000 -1.000000
vn 0.000000 0.000000 -1.000000
vn 0.000000 0.000000 -1.000000
vn 0.000000 0.000000 -1.000000
vn 0.000000 0.000000 -1.000000
vn -1.000000 0.000000 0.000000
vn -1.000000 0.000000 0.000000
vn -1.000000 0.000000 0.000000
vn -1.000000 0.000000 0.000000
vn -1.000000 0.000000 0.000000
vn -1.000000 0.000000 0.000000
f 1/1/1 2/2/2 3/3/3
f 1/1/4 3/3/5 4/4/6
f 5/5/7 6/6/8 7/7/9
f 5/5/10 7/7/11 8/8/12
f 9/9/13 10/10/14 11/11/15
f 9/9/16 11/11/17 12/12/18
f 13/13/19 14/14/20 15/15/21
f 13/13/22 15/15/23 16/16/24
f 17/17/25 18/18/26 19/19/27
f 17/17/28 19/19/29 20/20/30
f 21/21/31 22/22/32 23/23/33
f 21/21/34 23/23/35 24/24/36
