# This file uses centimeters as units for non-parametric coordinates.

mtllib OuterWall1.mtl
v -10.024999 27.217575 60.214268
v 10.024999 27.217575 60.214268
v -10.024999 28.217575 60.214268
v 10.024999 28.217575 60.214268
v -10.024999 28.217575 44.983998
v 10.024999 28.217575 44.983998
v -10.024999 27.217575 44.983998
v 10.024999 27.217575 44.983998
v 11.123223 27.217575 44.983998
v 11.123223 27.217575 60.214268
v 11.123223 28.217575 44.983998
v 11.123223 28.217575 60.214268
v -11.123223 27.217575 44.983998
v -11.123223 27.217575 60.214268
v -11.123223 28.217575 60.214268
v -11.123223 28.217575 44.983998
v 10.024999 8.382578 44.983998
v 10.024999 8.382578 60.214268
v 11.123223 8.382578 44.983998
v 11.123223 8.382578 60.214268
v -10.024999 8.382578 44.983998
v -10.024999 8.382578 60.214268
v -11.123223 8.382578 60.214268
v -11.123223 8.382578 44.983998
v -10.024999 28.217575 58.445637
v 10.024999 28.217575 58.445637
v 11.123223 28.217575 58.445637
v 11.123223 27.217575 58.445637
v 11.123223 8.382578 58.445637
v 10.024999 8.382578 58.445637
v 10.024999 27.217575 58.445637
v -10.024999 27.217575 58.445637
v -10.024999 8.382578 58.445637
v -11.123223 8.382578 58.445637
v -11.123223 27.217575 58.445637
v -11.123223 28.217575 58.445637
v 89.211813 27.217575 58.445637
v 89.211813 27.217575 60.214268
v 89.211813 28.217575 58.445637
v 89.211813 28.217575 60.214268
v 89.211813 8.382578 58.445637
v 89.211813 8.382578 60.214268
v -89.211813 27.217575 58.445637
v -89.211813 27.217575 60.214268
v -89.211813 8.382578 58.445637
v -89.211813 8.382578 60.214268
v -89.211813 28.217575 58.445637
v -89.211813 28.217575 60.214268
v -10.024999 17.031341 20.274477
v 10.024999 17.031341 20.274477
v 10.024999 16.031341 20.274477
v -10.024999 16.031341 20.274477
v 11.123223 17.031341 20.274477
v 11.123223 16.031341 20.274477
v -11.123223 16.031341 20.274477
v -11.123223 17.031341 20.274477
v 11.123223 -2.803658 20.274477
v 10.024999 -2.803658 20.274477
v -10.024999 -2.803658 20.274477
v -11.123223 -2.803658 20.274477
v -10.024999 17.031341 2.867551
v 10.024999 17.031341 2.867551
v 10.024999 16.031341 2.867551
v -10.024999 16.031341 2.867551
v 11.123223 17.031341 2.867551
v 11.123223 16.031341 2.867551
v -11.123223 16.031341 2.867551
v -11.123223 17.031341 2.867551
v 11.123223 -2.803658 2.867551
v 10.024999 -2.803658 2.867551
v -10.024999 -2.803658 2.867551
v -11.123223 -2.803658 2.867551
v -13.532351 17.031341 -1.383972
v 13.532351 17.031341 -1.383972
v 13.532351 16.031341 -1.383972
v -13.532351 16.031341 -1.383972
v 15.014800 17.031341 -1.383972
v 15.014800 16.031341 -1.383972
v -15.014800 16.031341 -1.383972
v -15.014800 17.031341 -1.383972
v 15.014800 -2.803658 -1.383972
v 13.532351 -2.803658 -1.383972
v -13.532351 -2.803658 -1.383972
v -15.014800 -2.803658 -1.383972
v -13.532351 17.031341 -50.427809
v 13.532351 17.031341 -50.427809
v 13.532351 16.031341 -50.427809
v -13.532351 16.031341 -50.427809
v 15.014800 17.031341 -50.427809
v 15.014800 16.031341 -50.427809
v -15.014800 16.031341 -50.427809
v -15.014800 17.031341 -50.427809
v 15.014800 -2.803658 -50.427809
v 13.532351 -2.803658 -50.427809
v -13.532351 -2.803658 -50.427809
v -15.014800 -2.803658 -50.427809
v -4.875136 9.795046 -52.974326
v 3.642283 9.795046 -52.974326
v 3.642283 9.187988 -52.974326
v -4.875136 9.187988 -52.974326
v 4.108819 9.795046 -52.974326
v 4.108819 9.187988 -52.974326
v -5.341672 9.187988 -52.974326
v -5.341672 9.795046 -52.974326
v 4.108819 -2.245949 -52.974326
v 3.642283 -2.245949 -52.974326
v -4.875136 -2.245949 -52.974326
v -5.341672 -2.245949 -52.974326
v -4.875136 9.795046 -67.258499
v 3.642283 9.795046 -67.258499
v 3.642283 9.187988 -67.258499
v -4.875136 9.187988 -67.258499
v 4.108819 9.795046 -67.258499
v 4.108819 9.187988 -67.258499
v -5.341672 9.187988 -67.258499
v -5.341672 9.795046 -67.258499
v 4.108819 -2.245949 -67.258499
v 3.642283 -2.245949 -67.258499
v -4.875136 -2.245949 -67.258499
v -5.341672 -2.245949 -67.258499
vt 0.375000 0.000000
vt 0.625000 0.000000
vt 0.375000 0.250000
vt 0.625000 0.250000
vt 0.375000 0.500000
vt 0.625000 0.500000
vt 0.375000 0.750000
vt 0.625000 0.750000
vt 0.375000 1.000000
vt 0.625000 1.000000
vt 0.875000 0.000000
vt 0.875000 0.250000
vt 0.125000 0.000000
vt 0.125000 0.250000
vt 0.625000 0.000000
vt 0.875000 0.000000
vt 0.875000 0.250000
vt 0.625000 0.250000
vt 0.125000 0.000000
vt 0.375000 0.000000
vt 0.375000 0.250000
vt 0.125000 0.250000
vt 0.625000 0.000000
vt 0.875000 0.000000
vt 0.875000 0.000000
vt 0.625000 0.000000
vt 0.125000 0.000000
vt 0.375000 0.000000
vt 0.375000 0.000000
vt 0.125000 0.000000
vt 0.345969 0.250000
vt 0.375000 0.279032
vt 0.625000 0.279032
vt 0.654032 0.250000
vt 0.654032 0.250000
vt 0.654032 0.000000
vt 0.654032 0.000000
vt 0.654032 0.000000
vt 0.625000 0.970968
vt 0.654032 0.000000
vt 0.345969 0.000000
vt 0.375000 0.970968
vt 0.345969 0.000000
vt 0.345969 0.000000
vt 0.345969 0.000000
vt 0.345969 0.250000
vt 0.654032 0.000000
vt 0.654032 0.250000
vt 0.625000 0.250000
vt 0.625000 0.000000
vt 0.654032 0.000000
vt 0.625000 0.000000
vt 0.345969 0.000000
vt 0.345969 0.000000
vt 0.375000 0.000000
vt 0.375000 0.000000
vt 0.345969 0.250000
vt 0.375000 0.250000
vt 0.375000 0.500000
vt 0.625000 0.500000
vt 0.625000 0.750000
vt 0.375000 0.750000
vt 0.875000 0.250000
vt 0.875000 0.250000
vt 0.875000 0.000000
vt 0.125000 0.000000
vt 0.125000 0.250000
vt 0.125000 0.250000
vt 0.875000 0.000000
vt 0.875000 0.000000
vt 0.875000 0.000000
vt 0.125000 0.000000
vt 0.125000 0.000000
vt 0.125000 0.000000
vt 0.375000 0.500000
vt 0.625000 0.500000
vt 0.625000 0.750000
vt 0.375000 0.750000
vt 0.875000 0.250000
vt 0.875000 0.250000
vt 0.875000 0.000000
vt 0.125000 0.000000
vt 0.125000 0.250000
vt 0.125000 0.250000
vt 0.875000 0.000000
vt 0.875000 0.000000
vt 0.875000 0.000000
vt 0.125000 0.000000
vt 0.125000 0.000000
vt 0.125000 0.000000
vt 0.375000 0.500000
vt 0.625000 0.500000
vt 0.625000 0.750000
vt 0.375000 0.750000
vt 0.875000 0.250000
vt 0.875000 0.250000
vt 0.875000 0.000000
vt 0.125000 0.000000
vt 0.125000 0.250000
vt 0.125000 0.250000
vt 0.875000 0.000000
vt 0.875000 0.000000
vt 0.875000 0.000000
vt 0.125000 0.000000
vt 0.125000 0.000000
vt 0.125000 0.000000
vt 0.375000 0.500000
vt 0.625000 0.500000
vt 0.625000 0.750000
vt 0.375000 0.750000
vt 0.875000 0.250000
vt 0.875000 0.250000
vt 0.875000 0.000000
vt 0.125000 0.000000
vt 0.125000 0.250000
vt 0.125000 0.250000
vt 0.875000 0.000000
vt 0.875000 0.000000
vt 0.875000 0.000000
vt 0.125000 0.000000
vt 0.125000 0.000000
vt 0.125000 0.000000
vt 0.375000 0.500000
vt 0.625000 0.500000
vt 0.625000 0.750000
vt 0.375000 0.750000
vt 0.875000 0.250000
vt 0.875000 0.250000
vt 0.875000 0.000000
vt 0.125000 0.000000
vt 0.125000 0.250000
vt 0.125000 0.250000
vt 0.875000 0.000000
vt 0.875000 0.000000
vt 0.875000 0.000000
vt 0.125000 0.000000
vt 0.125000 0.000000
vt 0.125000 0.000000
vt 0.375000 0.500000
vt 0.625000 0.500000
vt 0.625000 0.750000
vt 0.375000 0.750000
vt 0.875000 0.250000
vt 0.875000 0.250000
vt 0.875000 0.000000
vt 0.125000 0.000000
vt 0.125000 0.250000
vt 0.125000 0.250000
vt 0.875000 0.000000
vt 0.875000 0.000000
vt 0.875000 0.000000
vt 0.125000 0.000000
vt 0.125000 0.000000
vt 0.125000 0.000000
vn 0.000000 0.000000 1.000000
vn 0.000000 0.000000 1.000000
vn 0.000000 0.000000 1.000000
vn 0.000000 0.000000 1.000000
vn 0.000000 1.000000 0.000000
vn 0.000000 1.000000 0.000000
vn 0.000000 0.959641 -0.281227
vn 0.000000 0.959641 -0.281227
vn 0.000000 0.000000 -1.000000
vn 0.000000 0.000000 -1.000000
vn 0.000000 0.000000 -1.000000
vn 0.000000 0.000000 -1.000000
vn 0.000000 -0.959641 0.281227
vn 0.000000 -0.959641 0.281227
vn 0.000000 -1.000000 0.000000
vn 0.000000 -1.000000 0.000000
vn 1.000000 0.000000 0.000000
vn 1.000000 0.000000 0.000000
vn 1.000000 0.000000 0.000000
vn 1.000000 0.000000 0.000000
vn -1.000000 0.000000 0.000000
vn -1.000000 0.000000 0.000000
vn -1.000000 0.000000 0.000000
vn -1.000000 0.000000 0.000000
vn 0.000000 -1.000000 0.000000
vn 0.000000 -1.000000 0.000000
vn 0.000000 -0.959641 0.281227
vn 0.000000 -0.959641 0.281227
vn 0.000000 0.000000 -1.000000
vn 0.000000 0.000000 -1.000000
vn 0.000000 1.000000 0.000000
vn 0.000000 0.959641 -0.281227
vn 0.000000 0.000000 1.000000
vn 0.000000 0.000000 1.000000
vn 0.000000 -0.959641 0.281227
vn 0.000000 -1.000000 0.000000
vn 0.000000 -1.000000 0.000000
vn 0.000000 -0.959641 0.281227
vn 0.000000 0.000000 1.000000
vn 0.000000 0.000000 1.000000
vn 0.000000 1.000000 0.000000
vn 0.000000 0.959641 -0.281227
vn 0.000000 0.000000 -1.000000
vn 0.000000 0.000000 -1.000000
vn -1.000000 0.000000 0.000000
vn -1.000000 0.000000 0.000000
vn -1.000000 0.000000 0.000000
vn -1.000000 0.000000 0.000000
vn 0.000000 0.000000 -1.000000
vn 0.000000 0.000000 -1.000000
vn 1.000000 0.000000 0.000000
vn 1.000000 0.000000 0.000000
vn 0.000000 0.000000 1.000000
vn 0.000000 0.000000 1.000000
vn 1.000000 0.000000 0.000000
vn 1.000000 0.000000 0.000000
vn 1.000000 0.000000 0.000000
vn 1.000000 0.000000 0.000000
vn 0.000000 0.000000 1.000000
vn 0.000000 0.000000 1.000000
vn -1.000000 0.000000 0.000000
vn -1.000000 0.000000 0.000000
vn 0.000000 0.000000 -1.000000
vn 0.000000 0.000000 -1.000000
vn 0.000000 1.000000 0.000000
vn 0.000000 1.000000 0.000000
vn 0.000000 1.000000 0.000000
vn 1.000000 0.000000 0.000000
vn 1.000000 0.000000 0.000000
vn 1.000000 0.000000 0.000000
vn 1.000000 0.000000 0.000000
vn 1.000000 0.000000 0.000000
vn 1.000000 0.000000 0.000000
vn 0.000000 -1.000000 0.000000
vn 0.000000 -1.000000 0.000000
vn -1.000000 0.000000 0.000000
vn -1.000000 0.000000 0.000000
vn 0.000000 -1.000000 0.000000
vn 0.000000 -1.000000 0.000000
vn 1.000000 0.000000 0.000000
vn 1.000000 0.000000 0.000000
vn 0.000000 -1.000000 0.000000
vn 0.000000 -1.000000 0.000000
vn -1.000000 0.000000 0.000000
vn -1.000000 0.000000 0.000000
vn -1.000000 0.000000 0.000000
vn -1.000000 0.000000 0.000000
vn -1.000000 0.000000 0.000000
vn -1.000000 0.000000 0.000000
vn 0.000000 1.000000 0.000000
vn 0.000000 0.000000 -1.000000
vn 0.000000 0.000000 -1.000000
vn 0.000000 0.000000 -1.000000
vn 0.000000 0.000000 -1.000000
vn 0.000000 1.000000 0.000000
vn 0.000000 1.000000 0.000000
vn 0.000000 0.000000 1.000000
vn 0.000000 0.000000 1.000000
vn 0.000000 0.000000 -1.000000
vn 0.000000 0.000000 -1.000000
vn 0.000000 0.000000 1.000000
vn 0.000000 -1.000000 0.000000
vn 0.000000 -1.000000 0.000000
vn 0.000000 0.000000 -1.000000
vn 0.000000 0.000000 -1.000000
vn 0.000000 0.000000 -1.000000
vn 0.000000 0.000000 -1.000000
vn 0.000000 -1.000000 0.000000
vn 0.000000 -1.000000 0.000000
vn 0.000000 0.000000 1.000000
vn 0.000000 0.000000 1.000000
vn 0.000000 0.000000 -1.000000
vn 0.000000 0.000000 -1.000000
vn 0.000000 0.000000 1.000000
vn 0.000000 1.000000 0.000000
vn 0.000000 1.000000 0.000000
vn 0.000000 0.966491 -0.256702
vn 0.000000 0.966491 -0.256702
vn 0.000000 -0.966491 0.256702
vn 0.000000 -0.966491 0.256702
vn 0.000000 0.966491 -0.256702
vn 1.000000 0.000000 0.000000
vn 1.000000 0.000000 0.000000
vn -1.000000 0.000000 0.000000
vn -1.000000 0.000000 0.000000
vn 0.000000 0.966491 -0.256702
vn 1.000000 0.000000 0.000000
vn 0.000000 -0.966491 0.256702
vn 0.000000 -0.966491 0.256702
vn -1.000000 0.000000 0.000000
vn -1.000000 0.000000 0.000000
vn 1.000000 0.000000 0.000000
vn 1.000000 0.000000 0.000000
vn 0.000000 -0.966491 0.256702
vn 0.000000 -0.966491 0.256702
vn -1.000000 0.000000 0.000000
vn 0.000000 1.000000 0.000000
vn 0.000000 1.000000 0.000000
vn 0.000000 -1.000000 0.000000
vn 0.000000 -1.000000 0.000000
vn 0.000000 1.000000 0.000000
vn 1.000000 0.000000 0.000000
vn 1.000000 0.000000 0.000000
vn -1.000000 0.000000 0.000000
vn -1.000000 0.000000 0.000000
vn 0.000000 1.000000 0.000000
vn 1.000000 0.000000 0.000000
vn 0.000000 -1.000000 0.000000
vn 0.000000 -1.000000 0.000000
vn -1.000000 0.000000 0.000000
vn -1.000000 0.000000 0.000000
vn 1.000000 0.000000 0.000000
vn 1.000000 0.000000 0.000000
vn 0.000000 -1.000000 0.000000
vn 0.000000 -1.000000 0.000000
vn -1.000000 0.000000 0.000000
vn 0.000000 1.000000 -0.000000
vn 0.000000 1.000000 -0.000000
vn 0.000000 1.000000 -0.000000
vn 0.000000 1.000000 -0.000000
vn 0.000000 -1.000000 0.000000
vn 0.000000 -1.000000 0.000000
vn 0.000000 -1.000000 0.000000
vn 0.000000 -1.000000 0.000000
vn 0.000000 1.000000 0.000000
vn 0.445441 0.797082 0.407729
vn 0.055731 0.997142 0.051012
vn 0.737642 0.000000 0.675192
vn 0.737642 0.000000 0.675192
vn -0.737642 0.000000 0.675192
vn -0.737642 0.000000 0.675192
vn -0.737642 0.000000 0.675192
vn -0.737642 0.000000 0.675192
vn 0.000000 1.000000 0.000000
vn 0.000000 1.000000 0.000000
vn 0.000000 1.000000 0.000000
vn 0.735838 -0.069908 0.673540
vn 0.604096 -0.573857 0.552952
vn 0.000000 -1.000000 -0.000002
vn 0.000000 -1.000000 -0.000000
vn -0.771387 0.000000 -0.636366
vn -0.771387 0.000000 -0.636366
vn -0.771387 0.000000 -0.636366
vn -0.771387 0.000000 -0.636366
vn 0.771387 0.000000 -0.636366
vn 0.771387 0.000000 -0.636366
vn 0.771387 0.000000 -0.636366
vn 0.771387 0.000000 -0.636366
vn 0.000000 -1.000000 0.000000
vn -0.735837 -0.069908 0.673540
vn -0.604096 -0.573857 0.552952
vn 0.000000 -1.000000 0.000000
vn 0.000000 1.000000 0.000000
vn 0.000000 1.000000 0.000000
vn 0.000000 -1.000000 0.000000
vn 0.000000 -1.000000 0.000000
vn 0.000000 1.000000 0.000000
vn 1.000000 0.000000 0.000000
vn 1.000000 0.000000 0.000000
vn 1.000000 0.000000 0.000000
vn 1.000000 0.000000 0.000000
vn -1.000000 0.000000 0.000000
vn -1.000000 0.000000 0.000000
vn -1.000000 0.000000 0.000000
vn -1.000000 0.000000 0.000000
vn 0.000000 1.000000 0.000000
vn 1.000000 0.000000 0.000000
vn 1.000000 0.000000 0.000000
vn 0.000000 -0.999947 -0.010310
vn 0.000000 -0.999993 -0.003831
vn -1.000000 0.000000 0.000000
vn -1.000000 0.000000 0.000000
vn -1.000000 0.000000 0.000000
vn -1.000000 0.000000 0.000000
vn 1.000000 0.000000 0.000000
vn 1.000000 0.000000 0.000000
vn 1.000000 0.000000 0.000000
vn 1.000000 0.000000 0.000000
vn 0.000000 -0.999992 -0.004104
vn 0.000000 -0.999950 -0.010030
vn -1.000000 0.000000 0.000000
vn -1.000000 0.000000 0.000000
vn 0.000000 0.331954 -0.943296
vn 0.000000 0.331954 -0.943296
vn 0.000000 0.331954 -0.943296
vn 0.000000 0.331954 -0.943296
vn -0.014252 -0.330560 0.943677
vn 0.012750 -0.334516 0.942304
vn 0.191803 -0.119833 0.974090
vn -0.175426 -0.110503 0.978271
vn 0.013569 0.313665 -0.949437
vn 0.160010 0.104269 -0.981593
vn 0.227376 0.000000 -0.973807
vn 0.227382 0.000000 -0.973806
vn -0.254577 0.000000 -0.967053
vn -0.012253 0.317315 -0.948241
vn -0.173595 0.112246 -0.978400
vn -0.254583 0.000000 -0.967051
vn 0.227382 0.000000 -0.973806
vn 0.227382 0.000000 -0.973806
vn 0.000000 -0.999302 -0.037347
vn 0.000000 -0.996990 -0.077526
vn -0.249349 0.000000 0.968414
vn -0.249349 0.000000 0.968414
vn 0.282195 0.000000 0.959357
vn 0.282195 0.000000 0.959357
vn 0.000000 -0.997089 -0.076241
vn 0.000000 -0.999215 -0.039625
vn -0.254583 0.000000 -0.967051
vn -0.254583 0.000000 -0.967051
vn 0.000000 1.000000 0.000000
vn 0.000000 1.000000 0.000000
vn 0.000000 1.000000 0.000000
vn 0.000000 1.000000 0.000000
vn 0.000000 -1.000000 0.000000
vn 0.000000 -1.000000 0.000000
vn 0.000000 -1.000000 0.000000
vn 0.000000 -1.000000 0.000000
vn 0.000000 1.000000 0.000000
vn 0.000000 1.000000 0.000000
vn 1.000000 0.000000 0.000000
vn 1.000000 0.000000 0.000000
vn 1.000000 0.000000 0.000000
vn 1.000000 0.000000 0.000000
vn -1.000000 0.000000 0.000000
vn -1.000000 0.000000 0.000000
vn -1.000000 0.000000 0.000000
vn -1.000000 0.000000 0.000000
vn 0.000000 1.000000 0.000000
vn 0.000000 1.000000 0.000000
vn 1.000000 0.000000 0.000000
vn 1.000000 0.000000 0.000000
vn 0.000000 -1.000000 0.000000
vn 0.000000 -1.000000 0.000000
vn -1.000000 0.000000 0.000000
vn -1.000000 0.000000 0.000000
vn -1.000000 0.000000 0.000000
vn -1.000000 0.000000 0.000000
vn 1.000000 0.000000 0.000000
vn 1.000000 0.000000 0.000000
vn 1.000000 0.000000 0.000000
vn 1.000000 0.000000 0.000000
vn 0.000000 -1.000000 0.000000
vn 0.000000 -1.000000 0.000000
vn -1.000000 0.000000 0.000000
vn -1.000000 0.000000 0.000000
s 1
usemtl initialShadingGroup
f 1/1/1 2/2/2 4/4/3 3/3/4
s 2
f 25/32/5 26/33/6 6/6/7 5/5/8
s 3
f 109/139/9 110/140/10 111/141/11 112/142/12
s 4
f 7/7/13 8/8/14 31/39/15 32/42/16
s 5
f 27/35/17 28/36/18 9/16/19 11/17/20
s 6
f 13/19/21 35/45/22 36/46/23 16/22/24
s 7
f 29/37/25 30/38/26 17/24/27 19/25/28
s 3
f 111/151/11 110/143/10 113/144/29 114/145/30
s 2
f 6/12/7 26/34/6 27/35/31 11/17/32
s 1
f 4/4/3 2/2/2 10/15/33 12/18/34
s 8
f 21/27/35 33/43/36 34/44/37 24/30/38
s 1
f 1/1/1 3/3/4 15/21/39 14/20/40
s 2
f 36/46/41 25/31/5 5/14/8 16/22/42
s 3
f 109/148/9 112/152/12 115/146/43 116/147/44
s 9
f 30/38/45 31/40/46 8/11/47 17/24/48
s 3
f 111/151/11 114/145/30 117/149/49 118/150/50
s 5
f 9/16/19 28/36/18 29/37/51 19/25/52
s 1
f 10/15/33 2/2/2 18/23/53 20/26/54
s 10
f 7/13/55 32/41/56 33/43/57 21/27/58
s 1
f 1/1/1 14/20/40 23/29/59 22/28/60
s 6
f 34/44/61 35/45/22 13/19/21 24/30/62
s 3
f 115/146/43 112/152/12 119/153/63 120/154/64
s 2
f 3/3/65 4/4/66 26/33/6 25/32/5
f 27/35/31 26/34/6 4/4/66 12/18/67
s 11
f 38/50/68 37/47/69 39/48/70 40/49/71
f 41/51/72 37/47/69 38/50/68 42/52/73
s 7
f 18/23/74 30/38/26 29/37/25 20/26/75
s 9
f 2/2/76 31/40/46 30/38/45 18/23/77
s 4
f 32/42/16 31/39/15 2/10/78 1/9/79
s 10
f 33/43/57 32/41/56 1/1/80 22/28/81
s 8
f 34/44/37 33/43/36 22/28/82 23/29/83
s 12
f 44/56/84 43/53/85 45/54/86 46/55/87
f 47/57/88 43/53/85 44/56/84 48/58/89
s 2
f 3/3/65 25/31/5 36/46/41 15/21/90
s 13
f 28/36/91 27/35/92 39/48/93 37/47/94
s 2
f 27/35/31 12/18/67 40/49/95 39/48/96
s 1
f 12/18/34 10/15/33 38/50/97 40/49/98
s 13
f 29/37/99 28/36/91 37/47/94 41/51/100
s 1
f 10/15/33 20/26/54 42/52/101 38/50/97
s 7
f 20/26/75 29/37/25 41/51/102 42/52/103
s 14
f 35/45/104 34/44/105 45/54/106 43/53/107
s 8
f 34/44/37 23/29/83 46/55/108 45/54/109
s 1
f 23/29/59 14/20/40 44/56/110 46/55/111
s 14
f 36/46/112 35/45/104 43/53/107 47/57/113
s 1
f 14/20/40 15/21/39 48/58/114 44/56/110
s 2
f 15/21/90 36/46/41 47/57/115 48/58/116
f 5/5/8 6/6/7 50/60/117 49/59/118
s 4
f 8/8/14 7/7/13 52/62/119 51/61/120
s 2
f 6/12/7 11/17/32 53/64/121 50/63/117
s 5
f 11/17/20 9/16/19 54/65/122 53/64/123
s 6
f 13/19/21 16/22/24 56/67/124 55/66/125
s 2
f 16/22/42 5/14/8 49/68/118 56/67/126
s 5
f 9/16/19 19/25/52 57/69/127 54/65/122
s 7
f 19/25/28 17/24/27 58/70/128 57/69/129
s 9
f 17/24/48 8/11/47 51/71/130 58/70/131
s 10
f 7/13/55 21/27/58 59/73/132 52/72/133
s 8
f 21/27/35 24/30/38 60/74/134 59/73/135
s 6
f 24/30/62 13/19/21 55/66/125 60/74/136
s 2
f 49/59/118 50/60/117 62/76/137 61/75/138
s 4
f 51/61/120 52/62/119 64/78/139 63/77/140
s 2
f 50/63/117 53/64/121 65/80/141 62/79/137
s 5
f 53/64/123 54/65/122 66/81/142 65/80/143
s 6
f 55/66/125 56/67/124 68/83/144 67/82/145
s 2
f 56/67/126 49/68/118 61/84/138 68/83/146
s 5
f 54/65/122 57/69/127 69/85/147 66/81/142
s 7
f 57/69/129 58/70/128 70/86/148 69/85/149
s 9
f 58/70/131 51/71/130 63/87/150 70/86/151
s 10
f 52/72/133 59/73/132 71/89/152 64/88/153
s 8
f 59/73/135 60/74/134 72/90/154 71/89/155
s 6
f 60/74/136 55/66/125 67/82/145 72/90/156
s 15
f 61/75/157 62/76/158 74/92/159 73/91/160
s 16
f 63/77/161 64/78/162 76/94/163 75/93/164
s 15
f 62/79/165 65/80/166 77/96/167 74/95/159
f 65/80/166 66/81/168 78/97/169 77/96/167
s 18
f 67/82/170 68/83/171 80/99/172 79/98/173
s 15
f 68/83/174 61/84/175 73/100/160 80/99/176
f 66/81/168 69/85/177 81/101/178 78/97/169
f 69/85/177 70/86/179 82/102/180 81/101/178
s off
f 70/86/181 63/87/182 75/103/183 82/102/184
f 64/88/185 71/89/186 83/105/187 76/104/188
s 18
f 71/89/189 72/90/190 84/106/191 83/105/192
f 72/90/190 67/82/170 79/98/173 84/106/191
s 15
f 73/91/160 74/92/159 86/108/193 85/107/194
s 16
f 75/93/164 76/94/163 88/110/195 87/109/196
s 15
f 74/95/159 77/96/167 89/112/197 86/111/193
s 20
f 77/96/198 78/97/199 90/113/200 89/112/201
s 21
f 79/98/202 80/99/203 92/115/204 91/114/205
s 15
f 80/99/176 73/100/160 85/116/194 92/115/206
s 20
f 78/97/199 81/101/207 93/117/208 90/113/200
s 15
f 81/101/178 82/102/180 94/118/209 93/117/210
s off
f 82/102/211 75/103/212 87/119/213 94/118/214
f 76/104/215 83/105/216 95/121/217 88/120/218
s 18
f 83/105/192 84/106/191 96/122/219 95/121/220
s 21
f 84/106/221 79/98/202 91/114/205 96/122/222
s 22
f 85/107/223 86/108/224 98/124/225 97/123/226
s 23
f 87/109/227 88/110/228 100/126/229 99/125/230
s 22
f 86/111/224 89/112/231 101/128/232 98/127/225
f 89/112/231 90/113/233 102/129/234 101/128/232
f 91/114/235 92/115/236 104/131/237 103/130/238
f 92/115/236 85/116/223 97/132/226 104/131/237
f 90/113/233 93/117/239 105/133/240 102/129/234
s 15
f 93/117/210 94/118/209 106/134/241 105/133/242
s 23
f 94/118/243 87/119/227 99/135/230 106/134/244
f 88/120/228 95/121/245 107/137/246 100/136/229
s 18
f 95/121/220 96/122/219 108/138/247 107/137/248
s 22
f 96/122/249 91/114/235 103/130/238 108/138/250
s 24
f 97/123/251 98/124/252 110/140/253 109/139/254
s off
f 99/125/255 100/126/256 112/142/257 111/141/258
s 24
f 98/127/252 101/128/259 113/144/260 110/143/253
s 25
f 101/128/261 102/129/262 114/145/263 113/144/264
s 26
f 103/130/265 104/131/266 116/147/267 115/146/268
s 24
f 104/131/269 97/132/251 109/148/254 116/147/270
s 25
f 102/129/262 105/133/271 117/149/272 114/145/263
s 15
f 105/133/242 106/134/241 118/150/273 117/149/274
s off
f 106/134/275 99/135/276 111/151/277 118/150/278
f 100/136/279 107/137/280 119/153/281 112/152/282
s 18
f 107/137/248 108/138/247 120/154/283 119/153/284
s 26
f 108/138/285 103/130/265 115/146/268 120/154/286
