# This file uses centimeters as units for non-parametric coordinates.

mtllib Section1.mtl
v -11.442072 10.307007 60.690614
v 10.298908 10.307006 60.690614
v -11.442072 11.724434 60.690618
v 10.298908 11.724432 60.690618
v -11.442075 11.724432 42.834790
v 10.298908 11.724432 42.834790
v -11.442075 10.307006 42.834790
v 10.298908 10.307006 42.834790
v -11.442075 -1.596122 20.317049
v 10.298908 -1.596122 20.317049
v 10.298908 -3.013547 20.317049
v -11.442075 -3.013547 20.317049
v -11.442075 -1.596122 2.668826
v 10.298908 -1.596122 2.668826
v 10.298908 -3.013547 2.668826
v -11.442075 -3.013547 2.668826
v -15.004499 -1.596122 -1.093235
v 13.861333 -1.596122 -1.093235
v 13.861333 -3.013547 -1.093235
v -15.004499 -3.013547 -1.093235
v -4.877779 -1.596122 -67.441439
v 3.734614 -1.596122 -67.441439
v 3.734614 -3.013547 -67.441439
v -4.877779 -3.013547 -67.441439
v -15.004500 -1.596122 -50.158245
v 13.861335 -1.596122 -50.158245
v 13.861335 -3.013547 -50.158245
v -15.004500 -3.013547 -50.158245
v -4.877779 -1.596122 -52.925694
v -4.877779 -3.013547 -52.925694
v 3.734614 -3.013547 -52.925694
v 3.734614 -1.596122 -52.925694
v -15.004500 -1.596122 -31.814271
v 13.861335 -1.596122 -31.814271
v 13.861335 -3.013547 -31.814271
v -15.004500 -3.013547 -31.814271
v -15.004500 -1.596122 -48.292786
v -15.004500 -3.013547 -48.292786
v 13.861335 -3.013547 -48.292786
v 13.861335 -1.596122 -48.292786
v 5.161646 10.307007 60.690614
v 5.161645 10.307006 42.834790
v 5.161645 -3.013547 20.317049
v 5.161645 -3.013547 2.668826
v 7.040512 -3.013547 -1.093235
v 7.040510 -3.013547 -31.814271
v 7.040512 -3.013547 -48.292786
v 7.040510 -3.013547 -50.158245
v 1.699557 -3.013547 -52.925686
v 1.699557 -3.013547 -67.441439
v 1.699557 -1.596122 -67.441439
v 1.699557 -1.596122 -52.925694
v 7.040512 -1.596122 -50.158245
v 7.040510 -1.596122 -48.292786
v 7.040512 -1.596122 -31.814271
v 7.040512 -1.596122 -1.093235
v 5.161645 -1.596122 2.668826
v 5.161645 -1.596122 20.317049
v 5.161645 11.724432 42.834790
v 5.161646 11.724432 60.690618
v -3.920454 10.307007 60.690614
v -3.920456 10.307006 42.834790
v -3.920456 -3.013547 20.317049
v -3.920456 -3.013547 2.668826
v -5.017932 -3.013547 -1.093235
v -5.017932 -3.013547 -31.814271
v -5.017932 -3.013547 -48.292786
v -5.017932 -3.013547 -50.158245
v -1.898193 -3.013547 -52.925686
v -1.898193 -3.013547 -67.441439
v -1.898193 -1.596122 -67.441439
v -1.898193 -1.596122 -52.925694
v -5.017932 -1.596122 -50.158245
v -5.017932 -1.596122 -48.292786
v -5.017932 -1.596122 -31.814271
v -5.017932 -1.596122 -1.093235
v -3.920456 -1.596122 2.668826
v -3.920456 -1.596122 20.317049
v -3.920456 11.724432 42.834790
v -3.920454 11.724434 60.690618
v 7.040510 -3.013547 -31.814271
v 7.040512 -3.013547 -48.292786
v -5.017932 -3.013547 -31.814271
v -5.017932 -3.013547 -48.292786
v -5.017932 -1.596122 -48.292786
v -5.017932 -1.596122 -31.814271
v 7.040512 -1.596122 -31.814271
v 7.040510 -1.596122 -48.292786
v 11.885309 -124.314764 -29.170202
v 11.885313 -124.314764 -48.530484
v -9.862733 -124.314764 -29.170202
v -9.862732 -124.314764 -48.530484
v -4.013062 -1.596122 -46.919577
v -4.013062 -1.596122 -33.187488
v 6.035641 -1.596122 -33.187488
v 6.035639 -1.596122 -46.919577
v -7.901340 -123.674720 -48.400342
v -7.348610 -123.019861 -33.187488
v 9.371188 -123.019861 -33.187488
v 9.923918 -123.674720 -48.400342
v 11.885309 -107.647005 -29.170202
v -9.862733 -107.647005 -29.170202
v -9.862732 -107.647005 -48.530484
v 11.885313 -107.647005 -48.530484
v 7.040510 -106.398732 -31.814271
v -5.017932 -106.398732 -31.814271
v -5.017932 -106.398732 -48.292786
v 7.040512 -106.398732 -48.292786
v -7.901340 -107.570668 -48.400342
v -8.683654 -107.901871 -33.187488
v 10.706233 -107.901871 -33.187488
v 9.923918 -107.570668 -48.400342
v -4.013062 -107.456666 -46.919577
v -4.013062 -107.456666 -33.187488
v 6.035641 -107.456666 -33.187488
v 6.035639 -107.456666 -46.919577
vt 0.375000 0.000000
vt 0.625000 0.000000
vt 0.375000 0.250000
vt 0.625000 0.250000
vt 0.375000 0.500000
vt 0.625000 0.500000
vt 0.375000 0.750000
vt 0.625000 0.750000
vt 0.375000 1.000000
vt 0.625000 1.000000
vt 0.875000 0.000000
vt 0.875000 0.250000
vt 0.125000 0.000000
vt 0.125000 0.250000
vt 0.375000 0.500000
vt 0.625000 0.500000
vt 0.625000 0.750000
vt 0.375000 0.750000
vt 0.375000 0.500000
vt 0.625000 0.500000
vt 0.625000 0.750000
vt 0.375000 0.750000
vt 0.375000 0.500000
vt 0.625000 0.500000
vt 0.625000 0.750000
vt 0.375000 0.750000
vt 0.375000 0.500000
vt 0.625000 0.500000
vt 0.625000 0.750000
vt 0.375000 0.750000
vt 0.375000 0.500000
vt 0.625000 0.500000
vt 0.625000 0.750000
vt 0.375000 0.750000
vt 0.375000 0.500000
vt 0.375000 0.750000
vt 0.625000 0.750000
vt 0.625000 0.500000
vt 0.375000 0.500000
vt 0.625000 0.500000
vt 0.625000 0.750000
vt 0.375000 0.750000
vt 0.375000 0.500000
vt 0.375000 0.750000
vt 0.625000 0.750000
vt 0.625000 0.500000
vt 0.565926 0.000000
vt 0.565926 1.000000
vt 0.565926 0.750000
vt 0.565926 0.750000
vt 0.565926 0.750000
vt 0.565926 0.750000
vt 0.565926 0.750000
vt 0.565926 0.750000
vt 0.565926 0.750000
vt 0.565926 0.750000
vt 0.565926 0.750000
vt 0.565926 0.500000
vt 0.565926 0.500000
vt 0.565926 0.500000
vt 0.565926 0.500000
vt 0.565926 0.500000
vt 0.565926 0.500000
vt 0.565926 0.500000
vt 0.565926 0.500000
vt 0.565926 0.500000
vt 0.565926 0.250000
vt 0.461491 0.000000
vt 0.461491 1.000000
vt 0.461491 0.750000
vt 0.461491 0.750000
vt 0.461491 0.750000
vt 0.461491 0.750000
vt 0.461491 0.750000
vt 0.461491 0.750000
vt 0.461491 0.750000
vt 0.461491 0.750000
vt 0.461491 0.750000
vt 0.461491 0.500000
vt 0.461491 0.500000
vt 0.461491 0.500000
vt 0.461491 0.500000
vt 0.461491 0.500000
vt 0.461491 0.500000
vt 0.461491 0.500000
vt 0.461491 0.500000
vt 0.461491 0.500000
vt 0.461491 0.250000
vt 0.565926 0.750000
vt 0.565926 0.750000
vt 0.461491 0.750000
vt 0.461491 0.750000
vt 0.461491 0.500000
vt 0.461491 0.500000
vt 0.565926 0.500000
vt 0.565926 0.500000
vt 0.565926 0.750000
vt 0.565926 0.750000
vt 0.461491 0.750000
vt 0.461491 0.750000
vt 0.461491 0.500000
vt 0.461491 0.500000
vt 0.565926 0.500000
vt 0.565926 0.500000
vt 0.461491 0.500000
vt 0.461491 0.500000
vt 0.565926 0.500000
vt 0.565926 0.500000
vt 0.565926 0.750000
vt 0.461491 0.750000
vt 0.461491 0.750000
vt 0.565926 0.750000
vt 0.565926 0.750000
vt 0.461491 0.750000
vt 0.461491 0.750000
vt 0.565926 0.750000
vt 0.461491 0.500000
vt 0.461491 0.500000
vt 0.565926 0.500000
vt 0.565926 0.500000
vt 0.461491 0.500000
vt 0.461491 0.500000
vt 0.565926 0.500000
vt 0.565926 0.500000
vn -0.000000 -0.000003 1.000000
vn -0.000000 -0.000003 1.000000
vn 0.000000 -0.000003 1.000000
vn 0.000000 -0.000003 1.000000
vn 0.000000 1.000000 -0.000000
vn 0.000000 1.000000 -0.000000
vn 0.000000 1.000000 0.000000
vn 0.000000 1.000000 0.000000
vn 0.000000 0.000000 -1.000000
vn 0.000000 0.000000 -1.000000
vn 0.000000 0.000000 -1.000000
vn 0.000000 0.000000 -1.000000
vn -0.000000 -1.000000 0.000000
vn -0.000000 -1.000000 0.000000
vn -0.000000 -1.000000 0.000000
vn -0.000000 -1.000000 0.000000
vn 1.000000 0.000000 0.000000
vn 1.000000 0.000000 0.000000
vn 1.000000 0.000000 0.000000
vn 1.000000 0.000000 0.000000
vn -1.000000 0.000000 0.000000
vn -1.000000 0.000000 0.000000
vn -1.000000 0.000000 0.000000
vn -1.000000 0.000000 0.000000
vn 0.000000 0.860682 -0.509143
vn 0.000000 0.860682 -0.509143
vn 0.000000 0.860682 -0.509143
vn 0.000000 0.860682 -0.509143
vn 1.000000 0.000000 0.000000
vn 1.000000 0.000000 0.000000
vn 0.000000 -0.860682 0.509143
vn 0.000000 -0.860682 0.509143
vn 0.000000 -0.860682 0.509143
vn 0.000000 -0.860682 0.509143
vn -1.000000 0.000000 0.000000
vn -1.000000 0.000000 0.000000
vn 0.000000 1.000000 -0.000000
vn 0.000000 1.000000 0.000000
vn 0.000000 1.000000 0.000000
vn 0.000000 1.000000 0.000000
vn 1.000000 0.000000 0.000000
vn 1.000000 0.000000 0.000000
vn 0.000000 -1.000000 0.000000
vn 0.000000 -1.000000 0.000000
vn 0.000000 -1.000000 0.000000
vn 0.000000 -1.000000 0.000000
vn -1.000000 0.000000 0.000000
vn -1.000000 0.000000 0.000000
vn 0.000000 1.000000 -0.000000
vn 0.000000 1.000000 0.000000
vn 0.726110 0.000000 0.687578
vn 0.726110 0.000000 0.687578
vn 0.726110 0.000000 0.687578
vn 0.726110 0.000000 0.687578
vn 0.000000 -1.000000 0.000000
vn 0.000000 -1.000000 0.000000
vn -0.726110 0.000000 0.687578
vn -0.726110 0.000000 0.687578
vn -0.726110 0.000000 0.687578
vn -0.726110 0.000000 0.687578
vn 0.000000 1.000000 0.000000
vn 0.000000 1.000000 -0.000000
vn 0.000000 1.000000 -0.000000
vn 0.000000 1.000000 -0.000000
vn 0.416023 0.000000 -0.909354
vn 0.416023 0.000000 -0.909354
vn 0.862803 0.000000 -0.505541
vn 0.862803 0.000000 -0.505541
vn 0.000000 -1.000000 0.000000
vn 0.000000 -1.000000 0.000000
vn 0.000000 -1.000000 -0.000000
vn 0.000000 -1.000000 -0.000000
vn -0.416023 0.000000 -0.909354
vn -0.416023 0.000000 -0.909354
vn -0.862803 0.000000 -0.505541
vn -0.862803 0.000000 -0.505541
vn 0.000000 1.000000 0.000000
vn 0.000000 1.000000 0.000000
vn 0.000000 1.000000 0.000000
vn 0.000000 1.000000 0.000000
vn 1.000000 0.000000 0.000000
vn 1.000000 0.000000 0.000000
vn 1.000000 0.000000 0.000000
vn 1.000000 0.000000 0.000000
vn 0.000000 -1.000000 -0.000000
vn 0.000000 -1.000000 -0.000000
vn 0.000000 -1.000000 0.000000
vn 0.000000 -1.000000 0.000000
vn -1.000000 0.000000 0.000000
vn -1.000000 0.000000 0.000000
vn -1.000000 0.000000 0.000000
vn -1.000000 0.000000 0.000000
vn -1.000000 0.000000 0.000000
vn -1.000000 0.000000 0.000000
vn 0.000000 -1.000000 0.000000
vn 0.000000 -1.000000 0.000000
vn 1.000000 0.000000 0.000000
vn 1.000000 0.000000 0.000000
vn 0.000000 1.000000 0.000000
vn 0.000000 1.000000 0.000000
vn 1.000000 0.000000 0.000000
vn 1.000000 0.000000 0.000000
vn -1.000000 0.000000 0.000000
vn -1.000000 0.000000 0.000000
vn -0.000000 -1.000000 0.000000
vn -0.000000 -1.000000 0.000000
vn 0.000000 -0.860682 0.509143
vn 0.000000 -0.860682 0.509143
vn 0.000000 -1.000000 0.000000
vn 0.000000 -1.000000 -0.000000
vn 0.000000 -1.000000 -0.000000
vn 0.000000 -1.000000 0.000000
vn 0.000000 -1.000000 0.000000
vn 0.000000 -1.000000 0.000000
vn 0.000000 -1.000000 0.000000
vn 0.000000 -1.000000 0.000000
vn 0.000000 -1.000000 0.000000
vn 0.000000 -1.000000 0.000000
vn 0.000000 -1.000000 0.000000
vn 0.000000 -1.000000 0.000000
vn 0.000000 0.000000 -1.000000
vn 0.000000 0.000000 -1.000000
vn 0.000000 1.000000 0.000000
vn 0.000000 1.000000 -0.000000
vn 0.000000 1.000000 -0.000000
vn 0.000000 1.000000 0.000000
vn 0.000000 0.999075 -0.043007
vn 0.000000 0.999075 -0.043007
vn 0.000000 0.999075 -0.043007
vn 0.000000 0.999075 -0.043007
vn 0.000000 1.000000 0.000000
vn 0.000000 1.000000 -0.000000
vn 0.000000 1.000000 -0.000000
vn 0.000000 1.000000 0.000000
vn 0.000000 0.860682 -0.509143
vn 0.000000 0.860682 -0.509143
vn 0.000000 1.000000 -0.000000
vn 0.000000 1.000000 -0.000000
vn -0.000000 -0.000003 1.000000
vn -0.000000 -0.000003 1.000000
vn -0.000000 -1.000000 0.000000
vn -0.000000 -1.000000 0.000000
vn 0.000000 -0.860682 0.509143
vn 0.000000 -0.860682 0.509143
vn 0.000000 -1.000000 0.000000
vn 0.000000 -1.000000 -0.000000
vn 0.000000 -1.000000 -0.000000
vn 0.000000 -1.000000 0.000000
vn 0.000000 -1.000000 0.000000
vn 0.000000 -1.000000 0.000000
vn 0.000000 -1.000000 0.000000
vn 0.000000 -1.000000 0.000000
vn 0.000000 0.000000 -1.000000
vn 0.000000 0.000000 -1.000000
vn 0.000000 1.000000 -0.000000
vn 0.000000 1.000000 0.000000
vn 0.000000 1.000000 -0.000000
vn 0.000000 1.000000 0.000000
vn 0.000000 1.000000 0.000000
vn 0.000000 1.000000 0.000000
vn 0.000000 1.000000 0.000000
vn 0.000000 1.000000 0.000000
vn 0.000000 0.860682 -0.509143
vn 0.000000 0.860682 -0.509143
vn 0.000000 1.000000 -0.000000
vn 0.000000 1.000000 -0.000000
vn 0.000000 -0.000003 1.000000
vn 0.000000 -0.000003 1.000000
vn 0.000000 0.000000 0.000000
vn 0.000000 0.000000 0.000000
vn 0.000000 0.000000 0.000000
vn 0.000000 0.000000 0.000000
vn 0.000000 0.000000 0.000000
vn 0.000000 0.000000 0.000000
vn 0.000000 0.000000 0.000000
vn 0.000000 0.000000 0.000000
vn 0.000000 0.000000 0.000000
vn 0.000000 0.000000 0.000000
vn 0.000000 0.000000 0.000000
vn 0.000000 0.000000 0.000000
vn 0.000000 0.000000 0.000000
vn 0.000000 0.000000 0.000000
vn 0.000000 0.000000 0.000000
vn 0.000000 0.000000 0.000000
vn 0.000000 0.000000 0.000000
vn 0.000000 0.000000 0.000000
vn 0.000000 0.000000 0.000000
vn 0.000000 0.000000 0.000000
vn 0.000000 0.000000 0.000000
vn 0.000000 0.000000 0.000000
vn 0.000000 0.000000 0.000000
vn 0.000000 0.000000 0.000000
vn 0.000000 0.000000 0.000000
vn 0.000000 0.000000 0.000000
vn 0.000000 0.000000 0.000000
vn 0.000000 0.000000 0.000000
vn 0.000000 0.000000 0.000000
vn 0.000000 0.000000 0.000000
vn 0.000000 0.000000 0.000000
vn 0.000000 0.000000 0.000000
vn 0.993351 0.115123 0.000000
vn 0.999918 0.012835 0.000000
vn 1.000000 0.000000 0.000000
vn 1.000000 0.000000 0.000000
vn 0.000000 0.111360 0.993780
vn 0.000000 0.111360 0.993780
vn 0.000000 0.000000 1.000000
vn 0.000000 0.000000 1.000000
vn -0.999918 0.012835 -0.000000
vn -0.993351 0.115123 -0.000000
vn -1.000000 0.000000 -0.000000
vn -1.000000 0.000000 -0.000000
vn 0.000000 1.000000 -0.000001
vn 0.000000 1.000000 -0.000000
vn 0.000000 1.000000 -0.000000
vn 0.000000 1.000000 -0.000000
vn 0.000000 1.000000 -0.000000
vn 0.000000 1.000000 -0.000000
vn 0.000000 1.000000 -0.000001
vn 0.000000 1.000000 -0.000000
vn 0.999606 0.027187 0.006931
vn 0.977685 -0.210032 0.004395
vn 0.999062 0.042720 0.007084
vn 0.999062 0.042720 0.007084
vn 0.000000 0.000000 -1.000000
vn 0.000000 0.000000 -1.000000
vn 0.000000 0.000000 -1.000000
vn 0.000000 0.000000 -1.000000
vn -0.977685 -0.210032 0.004395
vn -0.999606 0.027187 0.006931
vn -0.999062 0.042720 0.007084
vn -0.999062 0.042720 0.007084
vn 0.000000 0.036628 0.999329
vn 0.000000 0.036628 0.999329
vn -0.995329 0.096540 -0.000000
vn -0.996995 0.077470 -0.000000
vn 0.000000 0.004299 -0.999991
vn 0.000000 0.004299 -0.999991
vn 0.000000 0.187064 -0.982348
vn 0.000000 0.187064 -0.982348
vn 0.996995 0.077470 0.000000
vn 0.995329 0.096540 0.000000
vn 0.000000 0.000000 1.000000
vn 0.000000 0.000000 1.000000
vn -1.000000 0.000000 0.000000
vn -1.000000 0.000000 0.000000
vn 0.000000 0.000000 -1.000000
vn 0.000000 0.000000 -1.000000
vn 1.000000 0.000000 0.000000
vn 1.000000 0.000000 0.000000
vn 0.996600 -0.082385 -0.000794
vn 0.999090 -0.042643 -0.000411
vn 0.000000 0.000000 -1.000000
vn 0.000000 0.000000 -1.000000
vn -0.999090 -0.042643 -0.000411
vn -0.996600 -0.082385 -0.000793
vn 0.000000 -0.020486 0.999790
vn 0.000000 -0.020486 0.999790
vn 0.000000 -0.997050 0.076755
vn 0.000000 -0.997050 0.076755
vn 1.000000 0.000000 0.000000
vn 1.000000 0.000000 0.000000
vn 0.000000 0.000000 -1.000000
vn 0.000000 0.000000 -1.000000
vn -1.000000 0.000000 0.000000
vn -1.000000 0.000000 0.000000
vn 0.000000 0.000000 1.000000
vn 0.000000 0.000000 1.000000
vn 0.000000 0.199253 -0.979948
vn 0.000000 0.199253 -0.979948
vn 0.000000 0.199253 -0.979948
vn 0.000000 0.199253 -0.979948
vn 0.066209 0.000000 -0.997806
vn 0.066209 0.000000 -0.997806
vn 0.066209 0.000000 -0.997806
vn 0.066209 0.000000 -0.997806
vn 0.000000 -0.862586 0.505911
vn 0.000000 -0.862586 0.505911
vn 0.000000 -0.862586 0.505911
vn 0.000000 -0.862586 0.505911
vn -0.066209 0.000000 -0.997806
vn -0.066209 0.000000 -0.997806
vn -0.066209 0.000000 -0.997806
vn -0.066209 0.000000 -0.997806
s 1
usemtl initialShadingGroup
f 60/67/1 41/47/2 2/2/3 4/4/4
s 2
f 59/66/5 60/67/6 4/4/7 6/6/8
s 3
f 50/57/9 51/58/10 22/28/11 23/29/12
s 4
f 41/48/13 42/49/14 8/8/15 2/10/16
s 5
f 2/2/17 8/11/18 6/12/19 4/4/20
s 6
f 7/13/21 1/1/22 3/3/23 5/14/24
s 7
f 58/65/25 59/66/26 6/6/27 10/16/28
s 5
f 6/6/19 8/8/18 11/17/29 10/16/30
s 8
f 8/8/31 42/49/32 43/50/33 11/17/34
s 6
f 7/7/21 5/5/24 9/15/35 12/18/36
s 9
f 57/64/37 58/65/38 10/16/39 14/20/40
s 5
f 10/16/30 11/17/29 15/21/41 14/20/42
s 10
f 11/17/43 43/50/44 44/51/45 15/21/46
s 6
f 12/18/36 9/15/35 13/19/47 16/22/48
s 9
f 56/63/49 57/64/37 14/20/40 18/24/50
s off
f 14/20/51 15/21/52 19/25/53 18/24/54
s 10
f 15/21/46 44/51/45 45/52/55 19/25/56
s off
f 16/22/57 13/19/58 17/23/59 20/26/60
s 9
f 52/59/61 53/60/62 26/32/63 32/38/64
s 12
f 26/32/65 27/33/66 31/37/67 32/38/68
s 10
f 27/33/69 48/55/70 49/56/71 31/37/72
s 14
f 28/34/73 25/31/74 29/35/75 30/36/76
s 9
f 54/61/77 55/62/78 34/40/79 40/46/80
s 12
f 34/40/81 35/41/82 39/45/83 40/46/84
s 10
f 35/41/85 46/53/86 47/54/87 39/45/88
s 14
f 36/42/89 33/39/90 37/43/91 38/44/92
f 30/36/76 29/35/75 21/27/93 24/30/94
s 10
f 31/37/72 49/56/71 50/57/95 23/29/96
s 12
f 32/38/68 31/37/67 23/29/97 22/28/98
s 9
f 51/58/99 52/59/61 32/38/64 22/28/100
f 55/62/78 56/63/49 18/24/50 34/40/79
s 12
f 18/24/101 19/25/102 35/41/82 34/40/81
s 10
f 19/25/56 45/52/55 46/53/86 35/41/85
s 14
f 20/26/103 17/23/104 33/39/90 36/42/89
f 38/44/92 37/43/91 25/31/74 28/34/73
s 10
f 39/45/88 47/54/87 48/55/70 27/33/69
s 12
f 40/46/84 39/45/83 27/33/66 26/32/65
s 9
f 53/60/62 54/61/77 40/46/80 26/32/63
s 4
f 61/69/105 62/70/106 42/49/14 41/48/13
s 8
f 43/50/33 42/49/32 62/70/107 63/71/108
s 10
f 44/51/45 43/50/44 63/71/109 64/72/110
f 45/52/55 44/51/45 64/72/110 65/73/111
f 46/53/86 45/52/55 65/73/111 66/74/112
s off
f 90/97/113 89/98/114 91/99/115 92/100/116
s 10
f 48/55/70 47/54/87 67/75/117 68/76/118
f 49/56/71 48/55/70 68/76/118 69/77/119
f 50/57/95 49/56/71 69/77/119 70/78/120
s 3
f 70/78/121 71/79/122 51/58/10 50/57/9
s 9
f 71/79/123 72/80/124 52/59/61 51/58/99
f 72/80/124 73/81/125 53/60/62 52/59/61
f 73/81/125 74/82/126 54/61/77 53/60/62
s off
f 97/105/127 98/106/128 99/107/129 100/108/130
s 9
f 75/83/131 76/84/132 56/63/49 55/62/78
f 76/84/132 77/85/133 57/64/37 56/63/49
f 77/85/133 78/86/134 58/65/38 57/64/37
s 7
f 78/86/135 79/87/136 59/66/26 58/65/25
s 2
f 79/87/137 80/88/138 60/67/6 59/66/5
s 1
f 80/88/139 61/68/140 41/47/2 60/67/1
s 4
f 7/7/141 62/70/106 61/69/105 1/9/142
s 8
f 63/71/108 62/70/107 7/7/143 12/18/144
s 10
f 64/72/110 63/71/109 12/18/145 16/22/146
f 65/73/111 64/72/110 16/22/146 20/26/147
f 66/74/112 65/73/111 20/26/147 36/42/148
f 67/75/117 66/74/112 36/42/148 38/44/149
f 68/76/118 67/75/117 38/44/149 28/34/150
f 69/77/119 68/76/118 28/34/150 30/36/151
f 70/78/120 69/77/119 30/36/151 24/30/152
s 3
f 21/27/153 71/79/122 70/78/121 24/30/154
s 9
f 29/35/155 72/80/124 71/79/123 21/27/156
f 25/31/157 73/81/125 72/80/124 29/35/155
f 37/43/158 74/82/126 73/81/125 25/31/157
f 33/39/159 75/83/131 74/82/126 37/43/158
f 17/23/160 76/84/132 75/83/131 33/39/159
f 13/19/161 77/85/133 76/84/132 17/23/160
f 9/15/162 78/86/134 77/85/133 13/19/161
s 7
f 5/5/163 79/87/136 78/86/135 9/15/164
s 2
f 3/3/165 80/88/138 79/87/137 5/5/166
s 1
f 1/1/167 61/68/140 80/88/139 3/3/168
s off
f 47/54/169 46/53/170 81/90/171 82/89/172
f 46/53/173 66/74/174 83/91/175 81/90/176
f 66/74/177 67/75/178 84/92/179 83/91/180
f 67/75/181 47/54/182 82/89/183 84/92/184
f 74/82/185 75/83/186 86/94/187 85/93/188
f 75/83/189 55/62/190 87/95/191 86/94/192
f 55/62/193 54/61/194 88/96/195 87/95/196
f 54/61/197 74/82/198 85/93/199 88/96/200
s 17
f 104/112/201 101/109/202 89/98/203 90/97/204
s 18
f 101/109/205 102/110/206 91/99/207 89/98/208
s 19
f 102/110/209 103/111/210 92/100/211 91/99/212
s 20
f 85/93/213 86/94/214 94/102/215 93/101/216
f 86/94/214 87/95/217 95/103/218 94/102/215
f 87/95/217 88/96/219 96/104/220 95/103/218
f 88/96/219 85/93/213 93/101/216 96/104/220
s 21
f 109/117/221 110/118/222 98/106/223 97/105/224
s 22
f 110/118/225 111/119/226 99/107/227 98/106/228
s 23
f 111/119/229 112/120/230 100/108/231 99/107/232
s 18
f 105/113/233 106/114/234 102/110/206 101/109/205
s 19
f 106/114/235 107/115/236 103/111/210 102/110/209
s 24
f 107/115/237 108/116/238 104/112/239 103/111/240
s 17
f 108/116/241 105/113/242 101/109/202 104/112/201
s 18
f 81/90/243 83/91/244 106/114/234 105/113/233
s 19
f 83/91/245 84/92/246 107/115/236 106/114/235
s 24
f 84/92/247 82/89/248 108/116/238 107/115/237
s 17
f 82/89/249 81/90/250 105/113/242 108/116/241
s 21
f 113/121/251 114/122/252 110/118/222 109/117/221
s 22
f 114/122/253 115/123/254 111/119/226 110/118/225
s 23
f 115/123/255 116/124/256 112/120/230 111/119/229
s 25
f 116/124/257 113/121/258 109/117/259 112/120/260
s 21
f 93/101/261 94/102/262 114/122/252 113/121/251
s 22
f 94/102/263 95/103/264 115/123/254 114/122/253
s 23
f 95/103/265 96/104/266 116/124/256 115/123/255
s 25
f 96/104/267 93/101/268 113/121/258 116/124/257
s off
f 90/97/269 92/100/270 97/105/271 100/108/272
f 92/100/273 103/111/274 109/117/275 97/105/276
f 103/111/277 104/112/278 112/120/279 109/117/280
f 104/112/281 90/97/282 100/108/283 112/120/284
