# This file uses centimeters as units for non-parametric coordinates.

v -1.000000 -0.000000 -2.000000
v -1.000000 2.000000 -2.000000
v -1.000000 -0.000000 2.000000
v 1.000000 -0.000000 -2.000000
v -1.000000 -0.000000 -2.000000
v -1.000000 -0.000000 2.000000
v 1.000000 -0.000000 2.000000
v 1.000000 -0.000000 2.000000
v -1.000000 -0.000000 2.000000
v -1.000000 2.000000 -2.000000
v 1.000000 2.000000 -2.000000
v 1.000000 2.000000 -2.000000
v -1.000000 2.000000 -2.000000
v -1.000000 -0.000000 -2.000000
v 1.000000 -0.000000 -2.000000
v 1.000000 -0.000000 -2.000000
v 1.000000 -0.000000 2.000000
v 1.000000 2.000000 -2.000000
vt 2.000000 0.000000
vt 4.000000 0.000000
vt 2.000000 -4.000000
vt 6.000000 0.000000
vt 8.000000 0.000000
vt 8.000000 -4.000000
vt 6.000000 -4.000000
vt 6.000000 8.000000
vt 8.000000 8.000000
vt 8.000000 4.000000
vt 6.000000 4.000000
vt 6.000000 4.000000
vt 8.000000 4.000000
vt 8.000000 2.000000
vt 6.000000 2.000000
vt 2.000000 0.000000
vt 2.000000 -3.987803
vt 0.000000 0.000000
vn -1.000000 0.000000 0.000000
vn -1.000000 0.000000 0.000000
vn -1.000000 0.000000 0.000000
vn 0.000000 -1.000000 0.000000
vn 0.000000 -1.000000 0.000000
vn 0.000000 -1.000000 0.000000
vn 0.000000 -1.000000 0.000000
vn 0.000000 -1.000000 0.000000
vn 0.000000 -1.000000 0.000000
vn 0.000000 0.894427 0.447214
vn 0.000000 0.894427 0.447214
vn 0.000000 0.894427 0.447214
vn 0.000000 0.894427 0.447214
vn 0.000000 0.894427 0.447214
vn 0.000000 0.894427 0.447214
vn 0.000000 0.000000 -1.000000
vn 0.000000 0.000000 -1.000000
vn 0.000000 0.000000 -1.000000
vn 0.000000 0.000000 -1.000000
vn 0.000000 0.000000 -1.000000
vn 0.000000 0.000000 -1.000000
vn 1.000000 0.000000 0.000000
vn 1.000000 0.000000 0.000000
vn 1.000000 0.000000 0.000000
f 1/1/1 3/3/2 2/2/3
f 4/4/4 6/6/5 5/5/6
f 4/4/7 7/7/8 6/6/9
f 8/8/10 10/10/11 9/9/12
f 8/8/13 11/11/14 10/10/15
f 12/12/16 14/14/17 13/13/18
f 12/12/19 15/15/20 14/14/21
f 16/16/22 18/18/23 17/17/24
v -1.000000 -0.000000 -2.000000
v -1.000000 2.000000 -2.000000
v -1.000000 -0.000000 2.000000
v 1.000000 -0.000000 -2.000000
v -1.000000 -0.000000 -2.000000
v -1.000000 -0.000000 2.000000
v 1.000000 -0.000000 2.000000
v 1.000000 -0.000000 2.000000
v -1.000000 -0.000000 2.000000
v -1.000000 2.000000 -2.000000
v 1.000000 2.000000 -2.000000
v 1.000000 2.000000 -2.000000
v -1.000000 2.000000 -2.000000
v -1.000000 -0.000000 -2.000000
v 1.000000 -0.000000 -2.000000
v 1.000000 -0.000000 -2.000000
v 1.000000 -0.000000 2.000000
v 1.000000 2.000000 -2.000000
vt 2.000000 0.000000
vt 4.000000 0.000000
vt 2.000000 -4.000000
vt 6.000000 0.000000
vt 8.000000 0.000000
vt 8.000000 -4.000000
vt 6.000000 -4.000000
vt 6.000000 8.000000
vt 8.000000 8.000000
vt 8.000000 4.000000
vt 6.000000 4.000000
vt 6.000000 4.000000
vt 8.000000 4.000000
vt 8.000000 2.000000
vt 6.000000 2.000000
vt 2.000000 0.000000
vt 2.000000 -3.987803
vt 0.000000 0.000000
vn -1.000000 0.000000 0.000000
vn -1.000000 0.000000 0.000000
vn -1.000000 0.000000 0.000000
vn 0.000000 -1.000000 0.000000
vn 0.000000 -1.000000 0.000000
vn 0.000000 -1.000000 0.000000
vn 0.000000 -1.000000 0.000000
vn 0.000000 -1.000000 0.000000
vn 0.000000 -1.000000 0.000000
vn 0.000000 0.894427 0.447214
vn 0.000000 0.894427 0.447214
vn 0.000000 0.894427 0.447214
vn 0.000000 0.894427 0.447214
vn 0.000000 0.894427 0.447214
vn 0.000000 0.894427 0.447214
vn 0.000000 0.000000 -1.000000
vn 0.000000 0.000000 -1.000000
vn 0.000000 0.000000 -1.000000
vn 0.000000 0.000000 -1.000000
vn 0.000000 0.000000 -1.000000
vn 0.000000 0.000000 -1.000000
vn 1.000000 0.000000 0.000000
vn 1.000000 0.000000 0.000000
vn 1.000000 0.000000 0.000000
f 19/19/25 21/21/26 20/20/27
f 22/22/28 24/24/29 23/23/30
f 22/22/31 25/25/32 24/24/33
f 26/26/34 28/28/35 27/27/36
f 26/26/37 29/29/38 28/28/39
f 30/30/40 32/32/41 31/31/42
f 30/30/43 33/33/44 32/32/45
f 34/34/46 36/36/47 35/35/48
